<svg viewBox="0 0 16 16" xmlns="http://www.w3.org/2000/svg" style="background-color: transparent">
        <polyline points="7.381051177665153,0.6460254037844386 7.381051177665153,1.0860254037844386 7,1.3060254037844385 6.618948822334847,1.0860254037844386 6.618948822334847,0.6460254037844386 7,0.4260254037844386" fill="#020300" />
<polyline points="8.381051177665153,0.6460254037844386 8.381051177665153,1.0860254037844386 8,1.3060254037844385 7.618948822334847,1.0860254037844386 7.618948822334847,0.6460254037844386 8,0.4260254037844386" fill="#020300" />
<polyline points="7.881051177665153,1.5120508075688772 7.881051177665153,1.9520508075688772 7.5,2.172050807568877 7.118948822334847,1.9520508075688772 7.118948822334847,1.5120508075688772 7.5,1.2920508075688772" fill="#020300" />
<polyline points="8.881051177665153,1.5120508075688772 8.881051177665153,1.9520508075688772 8.5,2.172050807568877 8.118948822334847,1.9520508075688772 8.118948822334847,1.5120508075688772 8.5,1.2920508075688772" fill="#020300" />
<polyline points="9.881051177665153,1.5120508075688772 9.881051177665153,1.9520508075688772 9.5,2.172050807568877 9.118948822334847,1.9520508075688772 9.118948822334847,1.5120508075688772 9.5,1.2920508075688772" fill="#020300" />
<polyline points="6.381051177665153,2.378076211353316 6.381051177665153,2.818076211353316 6,3.038076211353316 5.618948822334847,2.818076211353316 5.618948822334847,2.378076211353316 6,2.158076211353316" fill="#020300" />
<polyline points="7.381051177665153,2.378076211353316 7.381051177665153,2.818076211353316 7,3.038076211353316 6.618948822334847,2.818076211353316 6.618948822334847,2.378076211353316 7,2.158076211353316" fill="#020300" />
<polyline points="8.381051177665153,2.378076211353316 8.381051177665153,2.818076211353316 8,3.038076211353316 7.618948822334847,2.818076211353316 7.618948822334847,2.378076211353316 8,2.158076211353316" fill="#020300" />
<polyline points="9.381051177665153,2.378076211353316 9.381051177665153,2.818076211353316 9,3.038076211353316 8.618948822334847,2.818076211353316 8.618948822334847,2.378076211353316 9,2.158076211353316" fill="#020300" />
<polyline points="10.381051177665153,2.378076211353316 10.381051177665153,2.818076211353316 10,3.038076211353316 9.618948822334847,2.818076211353316 9.618948822334847,2.378076211353316 10,2.158076211353316" fill="#020300" />
<polyline points="11.381051177665153,2.378076211353316 11.381051177665153,2.818076211353316 11,3.038076211353316 10.618948822334847,2.818076211353316 10.618948822334847,2.378076211353316 11,2.158076211353316" fill="#020300" />
<polyline points="3.881051177665153,3.244101615137754 3.881051177665153,3.6841016151377546 3.5,3.9041016151377543 3.118948822334847,3.6841016151377546 3.118948822334847,3.244101615137754 3.5,3.0241016151377544" fill="#020300" />
<polyline points="4.881051177665153,3.244101615137754 4.881051177665153,3.6841016151377546 4.5,3.9041016151377543 4.118948822334847,3.6841016151377546 4.118948822334847,3.244101615137754 4.5,3.0241016151377544" fill="#020300" />
<polyline points="5.881051177665153,3.244101615137754 5.881051177665153,3.6841016151377546 5.5,3.9041016151377543 5.118948822334847,3.6841016151377546 5.118948822334847,3.244101615137754 5.5,3.0241016151377544" fill="#020300" />
<polyline points="6.881051177665153,3.244101615137754 6.881051177665153,3.6841016151377546 6.5,3.9041016151377543 6.118948822334847,3.6841016151377546 6.118948822334847,3.244101615137754 6.5,3.0241016151377544" fill="#020300" />
<polyline points="7.881051177665153,3.244101615137754 7.881051177665153,3.6841016151377546 7.5,3.9041016151377543 7.118948822334847,3.6841016151377546 7.118948822334847,3.244101615137754 7.5,3.0241016151377544" fill="#020300" />
<polyline points="8.881051177665153,3.244101615137754 8.881051177665153,3.6841016151377546 8.5,3.9041016151377543 8.118948822334847,3.6841016151377546 8.118948822334847,3.244101615137754 8.5,3.0241016151377544" fill="#020300" />
<polyline points="9.881051177665153,3.244101615137754 9.881051177665153,3.6841016151377546 9.5,3.9041016151377543 9.118948822334847,3.6841016151377546 9.118948822334847,3.244101615137754 9.5,3.0241016151377544" fill="#020300" />
<polyline points="10.881051177665153,3.244101615137754 10.881051177665153,3.6841016151377546 10.5,3.9041016151377543 10.118948822334847,3.6841016151377546 10.118948822334847,3.244101615137754 10.5,3.0241016151377544" fill="#020300" />
<polyline points="11.881051177665153,3.244101615137754 11.881051177665153,3.6841016151377546 11.5,3.9041016151377543 11.118948822334847,3.6841016151377546 11.118948822334847,3.244101615137754 11.5,3.0241016151377544" fill="#020300" />
<polyline points="12.881051177665153,3.244101615137754 12.881051177665153,3.6841016151377546 12.5,3.9041016151377543 12.118948822334847,3.6841016151377546 12.118948822334847,3.244101615137754 12.5,3.0241016151377544" fill="#020300" />
<polyline points="1.381051177665153,4.110127018922193 1.381051177665153,4.5501270189221925 1,4.770127018922193 0.6189488223348469,4.5501270189221925 0.6189488223348469,4.110127018922193 1,3.890127018922193" fill="#020300" />
<polyline points="2.381051177665153,4.110127018922193 2.381051177665153,4.5501270189221925 2,4.770127018922193 1.618948822334847,4.5501270189221925 1.618948822334847,4.110127018922193 2,3.890127018922193" fill="#020300" />
<polyline points="3.381051177665153,4.110127018922193 3.381051177665153,4.5501270189221925 3,4.770127018922193 2.618948822334847,4.5501270189221925 2.618948822334847,4.110127018922193 3,3.890127018922193" fill="#020300" />
<polyline points="4.381051177665153,4.110127018922193 4.381051177665153,4.5501270189221925 4,4.770127018922193 3.618948822334847,4.5501270189221925 3.618948822334847,4.110127018922193 4,3.890127018922193" fill="#020300" />
<polyline points="5.381051177665153,4.110127018922193 5.381051177665153,4.5501270189221925 5,4.770127018922193 4.618948822334847,4.5501270189221925 4.618948822334847,4.110127018922193 5,3.890127018922193" fill="#020300" />
<polyline points="6.381051177665153,4.110127018922193 6.381051177665153,4.5501270189221925 6,4.770127018922193 5.618948822334847,4.5501270189221925 5.618948822334847,4.110127018922193 6,3.890127018922193" fill="#020300" />
<polyline points="7.381051177665153,4.110127018922193 7.381051177665153,4.5501270189221925 7,4.770127018922193 6.618948822334847,4.5501270189221925 6.618948822334847,4.110127018922193 7,3.890127018922193" fill="#020300" />
<polyline points="8.381051177665153,4.110127018922193 8.381051177665153,4.5501270189221925 8,4.770127018922193 7.618948822334847,4.5501270189221925 7.618948822334847,4.110127018922193 8,3.890127018922193" fill="#eb5e28" />
<polyline points="9.381051177665153,4.110127018922193 9.381051177665153,4.5501270189221925 9,4.770127018922193 8.618948822334847,4.5501270189221925 8.618948822334847,4.110127018922193 9,3.890127018922193" fill="#020300" />
<polyline points="10.381051177665153,4.110127018922193 10.381051177665153,4.5501270189221925 10,4.770127018922193 9.618948822334847,4.5501270189221925 9.618948822334847,4.110127018922193 10,3.890127018922193" fill="#020300" />
<polyline points="11.381051177665153,4.110127018922193 11.381051177665153,4.5501270189221925 11,4.770127018922193 10.618948822334847,4.5501270189221925 10.618948822334847,4.110127018922193 11,3.890127018922193" fill="#020300" />
<polyline points="12.381051177665153,4.110127018922193 12.381051177665153,4.5501270189221925 12,4.770127018922193 11.618948822334847,4.5501270189221925 11.618948822334847,4.110127018922193 12,3.890127018922193" fill="#020300" />
<polyline points="13.381051177665153,4.110127018922193 13.381051177665153,4.5501270189221925 13,4.770127018922193 12.618948822334847,4.5501270189221925 12.618948822334847,4.110127018922193 13,3.890127018922193" fill="#020300" />
<polyline points="14.381051177665153,4.110127018922193 14.381051177665153,4.5501270189221925 14,4.770127018922193 13.618948822334847,4.5501270189221925 13.618948822334847,4.110127018922193 14,3.890127018922193" fill="#020300" />
<polyline points="0.8810511776651531,4.976152422706632 0.8810511776651531,5.416152422706632 0.5,5.636152422706632 0.118948822334847,5.416152422706632 0.118948822334847,4.976152422706632 0.5,4.756152422706632" fill="#020300" />
<polyline points="1.881051177665153,4.976152422706632 1.881051177665153,5.416152422706632 1.5,5.636152422706632 1.118948822334847,5.416152422706632 1.118948822334847,4.976152422706632 1.5,4.756152422706632" fill="#020300" />
<polyline points="2.881051177665153,4.976152422706632 2.881051177665153,5.416152422706632 2.5,5.636152422706632 2.118948822334847,5.416152422706632 2.118948822334847,4.976152422706632 2.5,4.756152422706632" fill="#020300" />
<polyline points="3.881051177665153,4.976152422706632 3.881051177665153,5.416152422706632 3.5,5.636152422706632 3.118948822334847,5.416152422706632 3.118948822334847,4.976152422706632 3.5,4.756152422706632" fill="#020300" />
<polyline points="4.881051177665153,4.976152422706632 4.881051177665153,5.416152422706632 4.5,5.636152422706632 4.118948822334847,5.416152422706632 4.118948822334847,4.976152422706632 4.5,4.756152422706632" fill="#020300" />
<polyline points="5.881051177665153,4.976152422706632 5.881051177665153,5.416152422706632 5.5,5.636152422706632 5.118948822334847,5.416152422706632 5.118948822334847,4.976152422706632 5.5,4.756152422706632" fill="#020300" />
<polyline points="6.881051177665153,4.976152422706632 6.881051177665153,5.416152422706632 6.5,5.636152422706632 6.118948822334847,5.416152422706632 6.118948822334847,4.976152422706632 6.5,4.756152422706632" fill="#020300" />
<polyline points="7.881051177665153,4.976152422706632 7.881051177665153,5.416152422706632 7.5,5.636152422706632 7.118948822334847,5.416152422706632 7.118948822334847,4.976152422706632 7.5,4.756152422706632" fill="#020300" />
<polyline points="8.881051177665153,4.976152422706632 8.881051177665153,5.416152422706632 8.5,5.636152422706632 8.118948822334847,5.416152422706632 8.118948822334847,4.976152422706632 8.5,4.756152422706632" fill="#020300" />
<polyline points="9.881051177665153,4.976152422706632 9.881051177665153,5.416152422706632 9.5,5.636152422706632 9.118948822334847,5.416152422706632 9.118948822334847,4.976152422706632 9.5,4.756152422706632" fill="#020300" />
<polyline points="10.881051177665153,4.976152422706632 10.881051177665153,5.416152422706632 10.5,5.636152422706632 10.118948822334847,5.416152422706632 10.118948822334847,4.976152422706632 10.5,4.756152422706632" fill="#020300" />
<polyline points="11.881051177665153,4.976152422706632 11.881051177665153,5.416152422706632 11.5,5.636152422706632 11.118948822334847,5.416152422706632 11.118948822334847,4.976152422706632 11.5,4.756152422706632" fill="#020300" />
<polyline points="12.881051177665153,4.976152422706632 12.881051177665153,5.416152422706632 12.5,5.636152422706632 12.118948822334847,5.416152422706632 12.118948822334847,4.976152422706632 12.5,4.756152422706632" fill="#020300" />
<polyline points="13.881051177665153,4.976152422706632 13.881051177665153,5.416152422706632 13.5,5.636152422706632 13.118948822334847,5.416152422706632 13.118948822334847,4.976152422706632 13.5,4.756152422706632" fill="#020300" />
<polyline points="2.381051177665153,5.842177826491071 2.381051177665153,6.28217782649107 2,6.502177826491071 1.618948822334847,6.28217782649107 1.618948822334847,5.842177826491071 2,5.62217782649107" fill="#020300" />
<polyline points="3.381051177665153,5.842177826491071 3.381051177665153,6.28217782649107 3,6.502177826491071 2.618948822334847,6.28217782649107 2.618948822334847,5.842177826491071 3,5.62217782649107" fill="#020300" />
<polyline points="4.381051177665153,5.842177826491071 4.381051177665153,6.28217782649107 4,6.502177826491071 3.618948822334847,6.28217782649107 3.618948822334847,5.842177826491071 4,5.62217782649107" fill="#020300" />
<polyline points="5.381051177665153,5.842177826491071 5.381051177665153,6.28217782649107 5,6.502177826491071 4.618948822334847,6.28217782649107 4.618948822334847,5.842177826491071 5,5.62217782649107" fill="#020300" />
<polyline points="6.381051177665153,5.842177826491071 6.381051177665153,6.28217782649107 6,6.502177826491071 5.618948822334847,6.28217782649107 5.618948822334847,5.842177826491071 6,5.62217782649107" fill="#020300" />
<polyline points="7.381051177665153,5.842177826491071 7.381051177665153,6.28217782649107 7,6.502177826491071 6.618948822334847,6.28217782649107 6.618948822334847,5.842177826491071 7,5.62217782649107" fill="#020300" />
<polyline points="8.381051177665153,5.842177826491071 8.381051177665153,6.28217782649107 8,6.502177826491071 7.618948822334847,6.28217782649107 7.618948822334847,5.842177826491071 8,5.62217782649107" fill="#020300" />
<polyline points="9.381051177665153,5.842177826491071 9.381051177665153,6.28217782649107 9,6.502177826491071 8.618948822334847,6.28217782649107 8.618948822334847,5.842177826491071 9,5.62217782649107" fill="#020300" />
<polyline points="10.381051177665153,5.842177826491071 10.381051177665153,6.28217782649107 10,6.502177826491071 9.618948822334847,6.28217782649107 9.618948822334847,5.842177826491071 10,5.62217782649107" fill="#020300" />
<polyline points="11.381051177665153,5.842177826491071 11.381051177665153,6.28217782649107 11,6.502177826491071 10.618948822334847,6.28217782649107 10.618948822334847,5.842177826491071 11,5.62217782649107" fill="#020300" />
<polyline points="12.381051177665153,5.842177826491071 12.381051177665153,6.28217782649107 12,6.502177826491071 11.618948822334847,6.28217782649107 11.618948822334847,5.842177826491071 12,5.62217782649107" fill="#020300" />
<polyline points="13.381051177665153,5.842177826491071 13.381051177665153,6.28217782649107 13,6.502177826491071 12.618948822334847,6.28217782649107 12.618948822334847,5.842177826491071 13,5.62217782649107" fill="#020300" />
<polyline points="3.881051177665153,6.708203230275509 3.881051177665153,7.1482032302755085 3.5,7.368203230275509 3.118948822334847,7.1482032302755085 3.118948822334847,6.708203230275509 3.5,6.488203230275508" fill="#020300" />
<polyline points="4.881051177665153,6.708203230275509 4.881051177665153,7.1482032302755085 4.5,7.368203230275509 4.118948822334847,7.1482032302755085 4.118948822334847,6.708203230275509 4.5,6.488203230275508" fill="#020300" />
<polyline points="5.881051177665153,6.708203230275509 5.881051177665153,7.1482032302755085 5.5,7.368203230275509 5.118948822334847,7.1482032302755085 5.118948822334847,6.708203230275509 5.5,6.488203230275508" fill="#020300" />
<polyline points="6.881051177665153,6.708203230275509 6.881051177665153,7.1482032302755085 6.5,7.368203230275509 6.118948822334847,7.1482032302755085 6.118948822334847,6.708203230275509 6.5,6.488203230275508" fill="#020300" />
<polyline points="7.881051177665153,6.708203230275509 7.881051177665153,7.1482032302755085 7.5,7.368203230275509 7.118948822334847,7.1482032302755085 7.118948822334847,6.708203230275509 7.5,6.488203230275508" fill="#020300" />
<polyline points="8.881051177665153,6.708203230275509 8.881051177665153,7.1482032302755085 8.5,7.368203230275509 8.118948822334847,7.1482032302755085 8.118948822334847,6.708203230275509 8.5,6.488203230275508" fill="#020300" />
<polyline points="9.881051177665153,6.708203230275509 9.881051177665153,7.1482032302755085 9.5,7.368203230275509 9.118948822334847,7.1482032302755085 9.118948822334847,6.708203230275509 9.5,6.488203230275508" fill="#020300" />
<polyline points="10.881051177665153,6.708203230275509 10.881051177665153,7.1482032302755085 10.5,7.368203230275509 10.118948822334847,7.1482032302755085 10.118948822334847,6.708203230275509 10.5,6.488203230275508" fill="#020300" />
<polyline points="11.881051177665153,6.708203230275509 11.881051177665153,7.1482032302755085 11.5,7.368203230275509 11.118948822334847,7.1482032302755085 11.118948822334847,6.708203230275509 11.5,6.488203230275508" fill="#020300" />
<polyline points="12.881051177665153,6.708203230275509 12.881051177665153,7.1482032302755085 12.5,7.368203230275509 12.118948822334847,7.1482032302755085 12.118948822334847,6.708203230275509 12.5,6.488203230275508" fill="#020300" />
<polyline points="4.381051177665153,7.574228634059947 4.381051177665153,8.014228634059947 4,8.234228634059948 3.618948822334847,8.014228634059947 3.618948822334847,7.574228634059947 4,7.354228634059947" fill="#020300" />
<polyline points="5.381051177665153,7.574228634059947 5.381051177665153,8.014228634059947 5,8.234228634059948 4.618948822334847,8.014228634059947 4.618948822334847,7.574228634059947 5,7.354228634059947" fill="#020300" />
<polyline points="6.381051177665153,7.574228634059947 6.381051177665153,8.014228634059947 6,8.234228634059948 5.618948822334847,8.014228634059947 5.618948822334847,7.574228634059947 6,7.354228634059947" fill="#020300" />
<polyline points="7.381051177665153,7.574228634059947 7.381051177665153,8.014228634059947 7,8.234228634059948 6.618948822334847,8.014228634059947 6.618948822334847,7.574228634059947 7,7.354228634059947" fill="#020300" />
<polyline points="8.381051177665153,7.574228634059947 8.381051177665153,8.014228634059947 8,8.234228634059948 7.618948822334847,8.014228634059947 7.618948822334847,7.574228634059947 8,7.354228634059947" fill="#020300" />
<polyline points="9.381051177665153,7.574228634059947 9.381051177665153,8.014228634059947 9,8.234228634059948 8.618948822334847,8.014228634059947 8.618948822334847,7.574228634059947 9,7.354228634059947" fill="#020300" />
<polyline points="10.381051177665153,7.574228634059947 10.381051177665153,8.014228634059947 10,8.234228634059948 9.618948822334847,8.014228634059947 9.618948822334847,7.574228634059947 10,7.354228634059947" fill="#020300" />
<polyline points="11.381051177665153,7.574228634059947 11.381051177665153,8.014228634059947 11,8.234228634059948 10.618948822334847,8.014228634059947 10.618948822334847,7.574228634059947 11,7.354228634059947" fill="#020300" />
<polyline points="12.381051177665153,7.574228634059947 12.381051177665153,8.014228634059947 12,8.234228634059948 11.618948822334847,8.014228634059947 11.618948822334847,7.574228634059947 12,7.354228634059947" fill="#020300" />
<polyline points="4.881051177665153,8.440254037844385 4.881051177665153,8.880254037844386 4.5,9.100254037844385 4.118948822334847,8.880254037844386 4.118948822334847,8.440254037844385 4.5,8.220254037844386" fill="#020300" />
<polyline points="5.881051177665153,8.440254037844385 5.881051177665153,8.880254037844386 5.5,9.100254037844385 5.118948822334847,8.880254037844386 5.118948822334847,8.440254037844385 5.5,8.220254037844386" fill="#020300" />
<polyline points="6.881051177665153,8.440254037844385 6.881051177665153,8.880254037844386 6.5,9.100254037844385 6.118948822334847,8.880254037844386 6.118948822334847,8.440254037844385 6.5,8.220254037844386" fill="#020300" />
<polyline points="7.881051177665153,8.440254037844385 7.881051177665153,8.880254037844386 7.5,9.100254037844385 7.118948822334847,8.880254037844386 7.118948822334847,8.440254037844385 7.5,8.220254037844386" fill="#020300" />
<polyline points="8.881051177665153,8.440254037844385 8.881051177665153,8.880254037844386 8.5,9.100254037844385 8.118948822334847,8.880254037844386 8.118948822334847,8.440254037844385 8.5,8.220254037844386" fill="#020300" />
<polyline points="9.881051177665153,8.440254037844385 9.881051177665153,8.880254037844386 9.5,9.100254037844385 9.118948822334847,8.880254037844386 9.118948822334847,8.440254037844385 9.5,8.220254037844386" fill="#020300" />
<polyline points="10.881051177665153,8.440254037844385 10.881051177665153,8.880254037844386 10.5,9.100254037844385 10.118948822334847,8.880254037844386 10.118948822334847,8.440254037844385 10.5,8.220254037844386" fill="#020300" />
<polyline points="11.881051177665153,8.440254037844385 11.881051177665153,8.880254037844386 11.5,9.100254037844385 11.118948822334847,8.880254037844386 11.118948822334847,8.440254037844385 11.5,8.220254037844386" fill="#020300" />
<polyline points="12.881051177665153,8.440254037844385 12.881051177665153,8.880254037844386 12.5,9.100254037844385 12.118948822334847,8.880254037844386 12.118948822334847,8.440254037844385 12.5,8.220254037844386" fill="#020300" />
<polyline points="4.381051177665153,9.306279441628824 4.381051177665153,9.746279441628825 4,9.966279441628824 3.618948822334847,9.746279441628825 3.618948822334847,9.306279441628824 4,9.086279441628825" fill="#020300" />
<polyline points="5.381051177665153,9.306279441628824 5.381051177665153,9.746279441628825 5,9.966279441628824 4.618948822334847,9.746279441628825 4.618948822334847,9.306279441628824 5,9.086279441628825" fill="#020300" />
<polyline points="6.381051177665153,9.306279441628824 6.381051177665153,9.746279441628825 6,9.966279441628824 5.618948822334847,9.746279441628825 5.618948822334847,9.306279441628824 6,9.086279441628825" fill="#020300" />
<polyline points="7.381051177665153,9.306279441628824 7.381051177665153,9.746279441628825 7,9.966279441628824 6.618948822334847,9.746279441628825 6.618948822334847,9.306279441628824 7,9.086279441628825" fill="#020300" />
<polyline points="8.381051177665153,9.306279441628824 8.381051177665153,9.746279441628825 8,9.966279441628824 7.618948822334847,9.746279441628825 7.618948822334847,9.306279441628824 8,9.086279441628825" fill="#020300" />
<polyline points="9.381051177665153,9.306279441628824 9.381051177665153,9.746279441628825 9,9.966279441628824 8.618948822334847,9.746279441628825 8.618948822334847,9.306279441628824 9,9.086279441628825" fill="#020300" />
<polyline points="10.381051177665153,9.306279441628824 10.381051177665153,9.746279441628825 10,9.966279441628824 9.618948822334847,9.746279441628825 9.618948822334847,9.306279441628824 10,9.086279441628825" fill="#020300" />
<polyline points="11.381051177665153,9.306279441628824 11.381051177665153,9.746279441628825 11,9.966279441628824 10.618948822334847,9.746279441628825 10.618948822334847,9.306279441628824 11,9.086279441628825" fill="#020300" />
<polyline points="12.381051177665153,9.306279441628824 12.381051177665153,9.746279441628825 12,9.966279441628824 11.618948822334847,9.746279441628825 11.618948822334847,9.306279441628824 12,9.086279441628825" fill="#020300" />
<polyline points="13.381051177665153,9.306279441628824 13.381051177665153,9.746279441628825 13,9.966279441628824 12.618948822334847,9.746279441628825 12.618948822334847,9.306279441628824 13,9.086279441628825" fill="#020300" />
<polyline points="4.881051177665153,10.172304845413263 4.881051177665153,10.612304845413265 4.5,10.832304845413264 4.118948822334847,10.612304845413265 4.118948822334847,10.172304845413263 4.5,9.952304845413265" fill="#020300" />
<polyline points="5.881051177665153,10.172304845413263 5.881051177665153,10.612304845413265 5.5,10.832304845413264 5.118948822334847,10.612304845413265 5.118948822334847,10.172304845413263 5.5,9.952304845413265" fill="#020300" />
<polyline points="6.881051177665153,10.172304845413263 6.881051177665153,10.612304845413265 6.5,10.832304845413264 6.118948822334847,10.612304845413265 6.118948822334847,10.172304845413263 6.5,9.952304845413265" fill="#020300" />
<polyline points="7.881051177665153,10.172304845413263 7.881051177665153,10.612304845413265 7.5,10.832304845413264 7.118948822334847,10.612304845413265 7.118948822334847,10.172304845413263 7.5,9.952304845413265" fill="#020300" />
<polyline points="8.881051177665153,10.172304845413263 8.881051177665153,10.612304845413265 8.5,10.832304845413264 8.118948822334847,10.612304845413265 8.118948822334847,10.172304845413263 8.5,9.952304845413265" fill="#020300" />
<polyline points="9.881051177665153,10.172304845413263 9.881051177665153,10.612304845413265 9.5,10.832304845413264 9.118948822334847,10.612304845413265 9.118948822334847,10.172304845413263 9.5,9.952304845413265" fill="#020300" />
<polyline points="10.881051177665153,10.172304845413263 10.881051177665153,10.612304845413265 10.5,10.832304845413264 10.118948822334847,10.612304845413265 10.118948822334847,10.172304845413263 10.5,9.952304845413265" fill="#020300" />
<polyline points="11.881051177665153,10.172304845413263 11.881051177665153,10.612304845413265 11.5,10.832304845413264 11.118948822334847,10.612304845413265 11.118948822334847,10.172304845413263 11.5,9.952304845413265" fill="#020300" />
<polyline points="12.881051177665153,10.172304845413263 12.881051177665153,10.612304845413265 12.5,10.832304845413264 12.118948822334847,10.612304845413265 12.118948822334847,10.172304845413263 12.5,9.952304845413265" fill="#020300" />
<polyline points="4.381051177665153,11.038330249197701 4.381051177665153,11.478330249197702 4,11.698330249197701 3.618948822334847,11.478330249197702 3.618948822334847,11.038330249197701 4,10.818330249197702" fill="#020300" />
<polyline points="5.381051177665153,11.038330249197701 5.381051177665153,11.478330249197702 5,11.698330249197701 4.618948822334847,11.478330249197702 4.618948822334847,11.038330249197701 5,10.818330249197702" fill="#020300" />
<polyline points="6.381051177665153,11.038330249197701 6.381051177665153,11.478330249197702 6,11.698330249197701 5.618948822334847,11.478330249197702 5.618948822334847,11.038330249197701 6,10.818330249197702" fill="#020300" />
<polyline points="7.381051177665153,11.038330249197701 7.381051177665153,11.478330249197702 7,11.698330249197701 6.618948822334847,11.478330249197702 6.618948822334847,11.038330249197701 7,10.818330249197702" fill="#020300" />
<polyline points="8.381051177665153,11.038330249197701 8.381051177665153,11.478330249197702 8,11.698330249197701 7.618948822334847,11.478330249197702 7.618948822334847,11.038330249197701 8,10.818330249197702" fill="#020300" />
<polyline points="9.381051177665153,11.038330249197701 9.381051177665153,11.478330249197702 9,11.698330249197701 8.618948822334847,11.478330249197702 8.618948822334847,11.038330249197701 9,10.818330249197702" fill="#020300" />
<polyline points="10.381051177665153,11.038330249197701 10.381051177665153,11.478330249197702 10,11.698330249197701 9.618948822334847,11.478330249197702 9.618948822334847,11.038330249197701 10,10.818330249197702" fill="#020300" />
<polyline points="11.381051177665153,11.038330249197701 11.381051177665153,11.478330249197702 11,11.698330249197701 10.618948822334847,11.478330249197702 10.618948822334847,11.038330249197701 11,10.818330249197702" fill="#020300" />
<polyline points="12.381051177665153,11.038330249197701 12.381051177665153,11.478330249197702 12,11.698330249197701 11.618948822334847,11.478330249197702 11.618948822334847,11.038330249197701 12,10.818330249197702" fill="#020300" />
<polyline points="13.381051177665153,11.038330249197701 13.381051177665153,11.478330249197702 13,11.698330249197701 12.618948822334847,11.478330249197702 12.618948822334847,11.038330249197701 13,10.818330249197702" fill="#020300" />
<polyline points="4.881051177665153,11.90435565298214 4.881051177665153,12.344355652982141 4.5,12.56435565298214 4.118948822334847,12.344355652982141 4.118948822334847,11.90435565298214 4.5,11.684355652982141" fill="#020300" />
<polyline points="5.881051177665153,11.90435565298214 5.881051177665153,12.344355652982141 5.5,12.56435565298214 5.118948822334847,12.344355652982141 5.118948822334847,11.90435565298214 5.5,11.684355652982141" fill="#020300" />
<polyline points="6.881051177665153,11.90435565298214 6.881051177665153,12.344355652982141 6.5,12.56435565298214 6.118948822334847,12.344355652982141 6.118948822334847,11.90435565298214 6.5,11.684355652982141" fill="#020300" />
<polyline points="7.881051177665153,11.90435565298214 7.881051177665153,12.344355652982141 7.5,12.56435565298214 7.118948822334847,12.344355652982141 7.118948822334847,11.90435565298214 7.5,11.684355652982141" fill="#020300" />
<polyline points="8.881051177665153,11.90435565298214 8.881051177665153,12.344355652982141 8.5,12.56435565298214 8.118948822334847,12.344355652982141 8.118948822334847,11.90435565298214 8.5,11.684355652982141" fill="#020300" />
<polyline points="9.881051177665153,11.90435565298214 9.881051177665153,12.344355652982141 9.5,12.56435565298214 9.118948822334847,12.344355652982141 9.118948822334847,11.90435565298214 9.5,11.684355652982141" fill="#020300" />
<polyline points="10.881051177665153,11.90435565298214 10.881051177665153,12.344355652982141 10.5,12.56435565298214 10.118948822334847,12.344355652982141 10.118948822334847,11.90435565298214 10.5,11.684355652982141" fill="#020300" />
<polyline points="11.881051177665153,11.90435565298214 11.881051177665153,12.344355652982141 11.5,12.56435565298214 11.118948822334847,12.344355652982141 11.118948822334847,11.90435565298214 11.5,11.684355652982141" fill="#020300" />
<polyline points="12.881051177665153,11.90435565298214 12.881051177665153,12.344355652982141 12.5,12.56435565298214 12.118948822334847,12.344355652982141 12.118948822334847,11.90435565298214 12.5,11.684355652982141" fill="#020300" />
<polyline points="13.881051177665153,11.90435565298214 13.881051177665153,12.344355652982141 13.5,12.56435565298214 13.118948822334847,12.344355652982141 13.118948822334847,11.90435565298214 13.5,11.684355652982141" fill="#020300" />
<polyline points="4.381051177665153,12.770381056766578 4.381051177665153,13.210381056766579 4,13.430381056766578 3.618948822334847,13.210381056766579 3.618948822334847,12.770381056766578 4,12.550381056766579" fill="#020300" />
<polyline points="5.381051177665153,12.770381056766578 5.381051177665153,13.210381056766579 5,13.430381056766578 4.618948822334847,13.210381056766579 4.618948822334847,12.770381056766578 5,12.550381056766579" fill="#020300" />
<polyline points="6.381051177665153,12.770381056766578 6.381051177665153,13.210381056766579 6,13.430381056766578 5.618948822334847,13.210381056766579 5.618948822334847,12.770381056766578 6,12.550381056766579" fill="#020300" />
<polyline points="7.381051177665153,12.770381056766578 7.381051177665153,13.210381056766579 7,13.430381056766578 6.618948822334847,13.210381056766579 6.618948822334847,12.770381056766578 7,12.550381056766579" fill="#020300" />
<polyline points="8.381051177665153,12.770381056766578 8.381051177665153,13.210381056766579 8,13.430381056766578 7.618948822334847,13.210381056766579 7.618948822334847,12.770381056766578 8,12.550381056766579" fill="#020300" />
<polyline points="9.381051177665153,12.770381056766578 9.381051177665153,13.210381056766579 9,13.430381056766578 8.618948822334847,13.210381056766579 8.618948822334847,12.770381056766578 9,12.550381056766579" fill="#020300" />
<polyline points="10.381051177665153,12.770381056766578 10.381051177665153,13.210381056766579 10,13.430381056766578 9.618948822334847,13.210381056766579 9.618948822334847,12.770381056766578 10,12.550381056766579" fill="#020300" />
<polyline points="11.381051177665153,12.770381056766578 11.381051177665153,13.210381056766579 11,13.430381056766578 10.618948822334847,13.210381056766579 10.618948822334847,12.770381056766578 11,12.550381056766579" fill="#020300" />
<polyline points="12.381051177665153,12.770381056766578 12.381051177665153,13.210381056766579 12,13.430381056766578 11.618948822334847,13.210381056766579 11.618948822334847,12.770381056766578 12,12.550381056766579" fill="#020300" />
<polyline points="5.881051177665153,13.636406460551017 5.881051177665153,14.076406460551018 5.5,14.296406460551017 5.118948822334847,14.076406460551018 5.118948822334847,13.636406460551017 5.5,13.416406460551018" fill="#020300" />
<polyline points="6.881051177665153,13.636406460551017 6.881051177665153,14.076406460551018 6.5,14.296406460551017 6.118948822334847,14.076406460551018 6.118948822334847,13.636406460551017 6.5,13.416406460551018" fill="#020300" />
<polyline points="7.881051177665153,13.636406460551017 7.881051177665153,14.076406460551018 7.5,14.296406460551017 7.118948822334847,14.076406460551018 7.118948822334847,13.636406460551017 7.5,13.416406460551018" fill="#020300" />
<polyline points="8.881051177665153,13.636406460551017 8.881051177665153,14.076406460551018 8.5,14.296406460551017 8.118948822334847,14.076406460551018 8.118948822334847,13.636406460551017 8.5,13.416406460551018" fill="#020300" />
<polyline points="15.881051177665153,13.636406460551017 15.881051177665153,14.076406460551018 15.5,14.296406460551017 15.118948822334847,14.076406460551018 15.118948822334847,13.636406460551017 15.5,13.416406460551018" fill="#020300" />
<polyline points="15.381051177665153,14.502431864335456 15.381051177665153,14.942431864335457 15,15.162431864335456 14.618948822334847,14.942431864335457 14.618948822334847,14.502431864335456 15,14.282431864335457" fill="#020300" />
<polyline points="15.881051177665153,15.368457268119894 15.881051177665153,15.808457268119895 15.5,16.028457268119894 15.118948822334847,15.808457268119895 15.118948822334847,15.368457268119894 15.5,15.148457268119895" fill="#020300" />
      </svg>