<svg viewBox="0 0 63 60" xmlns="http://www.w3.org/2000/svg" style="background-color: transparent">
        <circle cx="3.5" cy="0" r="0.22" fill="#423B38" />
<circle cx="4.5" cy="0" r="0.22" fill="#423B38" />
<circle cx="5.5" cy="0" r="0.22" fill="#423B38" />
<circle cx="10.5" cy="0" r="0.22" fill="#423B38" />
<circle cx="11.5" cy="0" r="0.22" fill="#423B38" />
<circle cx="12.5" cy="0" r="0.22" fill="#423B38" />
<circle cx="13.5" cy="0" r="0.22" fill="#423B38" />
<circle cx="14.5" cy="0" r="0.22" fill="#423B38" />
<circle cx="15.5" cy="0" r="0.22" fill="#423B38" />
<circle cx="16.5" cy="0" r="0.22" fill="#423B38" />
<circle cx="17.5" cy="0" r="0.22" fill="#423B38" />
<circle cx="18.5" cy="0" r="0.22" fill="#423B38" />
<circle cx="19.5" cy="0" r="0.22" fill="#423B38" />
<circle cx="20.5" cy="0" r="0.22" fill="#423B38" />
<circle cx="21.5" cy="0" r="0.22" fill="#423B38" />
<circle cx="22.5" cy="0" r="0.22" fill="#423B38" />
<circle cx="23.5" cy="0" r="0.22" fill="#423B38" />
<circle cx="24.5" cy="0" r="0.22" fill="#423B38" />
<circle cx="25.5" cy="0" r="0.22" fill="#423B38" />
<circle cx="26.5" cy="0" r="0.22" fill="#423B38" />
<circle cx="27.5" cy="0" r="0.22" fill="#423B38" />
<circle cx="28.5" cy="0" r="0.22" fill="#423B38" />
<circle cx="29.5" cy="0" r="0.22" fill="#423B38" />
<circle cx="30.5" cy="0" r="0.22" fill="#423B38" />
<circle cx="31.5" cy="0" r="0.22" fill="#423B38" />
<circle cx="32.5" cy="0" r="0.22" fill="#423B38" />
<circle cx="33.5" cy="0" r="0.22" fill="#423B38" />
<circle cx="34.5" cy="0" r="0.22" fill="#423B38" />
<circle cx="35.5" cy="0" r="0.22" fill="#423B38" />
<circle cx="36.5" cy="0" r="0.22" fill="#423B38" />
<circle cx="37.5" cy="0" r="0.22" fill="#423B38" />
<circle cx="38.5" cy="0" r="0.22" fill="#423B38" />
<circle cx="39.5" cy="0" r="0.22" fill="#423B38" />
<circle cx="40.5" cy="0" r="0.22" fill="#423B38" />
<circle cx="44.5" cy="0" r="0.22" fill="#423B38" />
<circle cx="45.5" cy="0" r="0.22" fill="#423B38" />
<circle cx="46.5" cy="0" r="0.22" fill="#423B38" />
<circle cx="49.5" cy="0" r="0.22" fill="#423B38" />
<circle cx="50.5" cy="0" r="0.22" fill="#423B38" />
<circle cx="51.5" cy="0" r="0.22" fill="#423B38" />
<circle cx="52.5" cy="0" r="0.22" fill="#423B38" />
<circle cx="53.5" cy="0" r="0.22" fill="#423B38" />
<circle cx="54.5" cy="0" r="0.22" fill="#423B38" />
<circle cx="55.5" cy="0" r="0.22" fill="#423B38" />
<circle cx="62.5" cy="0" r="0.22" fill="#423B38" />
<circle cx="4" cy="0.8660254037844386" r="0.22" fill="#423B38" />
<circle cx="6" cy="0.8660254037844386" r="0.22" fill="#423B38" />
<circle cx="11" cy="0.8660254037844386" r="0.22" fill="#423B38" />
<circle cx="12" cy="0.8660254037844386" r="0.22" fill="#423B38" />
<circle cx="13" cy="0.8660254037844386" r="0.22" fill="#423B38" />
<circle cx="14" cy="0.8660254037844386" r="0.22" fill="#423B38" />
<circle cx="15" cy="0.8660254037844386" r="0.22" fill="#423B38" />
<circle cx="16" cy="0.8660254037844386" r="0.22" fill="#423B38" />
<circle cx="17" cy="0.8660254037844386" r="0.22" fill="#423B38" />
<circle cx="18" cy="0.8660254037844386" r="0.22" fill="#423B38" />
<circle cx="19" cy="0.8660254037844386" r="0.22" fill="#423B38" />
<circle cx="20" cy="0.8660254037844386" r="0.22" fill="#423B38" />
<circle cx="21" cy="0.8660254037844386" r="0.22" fill="#423B38" />
<circle cx="22" cy="0.8660254037844386" r="0.22" fill="#423B38" />
<circle cx="23" cy="0.8660254037844386" r="0.22" fill="#423B38" />
<circle cx="24" cy="0.8660254037844386" r="0.22" fill="#423B38" />
<circle cx="25" cy="0.8660254037844386" r="0.22" fill="#423B38" />
<circle cx="26" cy="0.8660254037844386" r="0.22" fill="#423B38" />
<circle cx="27" cy="0.8660254037844386" r="0.22" fill="#423B38" />
<circle cx="28" cy="0.8660254037844386" r="0.22" fill="#423B38" />
<circle cx="29" cy="0.8660254037844386" r="0.22" fill="#423B38" />
<circle cx="30" cy="0.8660254037844386" r="0.22" fill="#423B38" />
<circle cx="31" cy="0.8660254037844386" r="0.22" fill="#423B38" />
<circle cx="33" cy="0.8660254037844386" r="0.22" fill="#423B38" />
<circle cx="37" cy="0.8660254037844386" r="0.22" fill="#423B38" />
<circle cx="38" cy="0.8660254037844386" r="0.22" fill="#423B38" />
<circle cx="39" cy="0.8660254037844386" r="0.22" fill="#423B38" />
<circle cx="40" cy="0.8660254037844386" r="0.22" fill="#423B38" />
<circle cx="41" cy="0.8660254037844386" r="0.22" fill="#423B38" />
<circle cx="42" cy="0.8660254037844386" r="0.22" fill="#423B38" />
<circle cx="43" cy="0.8660254037844386" r="0.22" fill="#423B38" />
<circle cx="44" cy="0.8660254037844386" r="0.22" fill="#423B38" />
<circle cx="45" cy="0.8660254037844386" r="0.22" fill="#423B38" />
<circle cx="46" cy="0.8660254037844386" r="0.22" fill="#423B38" />
<circle cx="49" cy="0.8660254037844386" r="0.22" fill="#423B38" />
<circle cx="50" cy="0.8660254037844386" r="0.22" fill="#423B38" />
<circle cx="51" cy="0.8660254037844386" r="0.22" fill="#423B38" />
<circle cx="52" cy="0.8660254037844386" r="0.22" fill="#423B38" />
<circle cx="53" cy="0.8660254037844386" r="0.22" fill="#423B38" />
<circle cx="54" cy="0.8660254037844386" r="0.22" fill="#423B38" />
<circle cx="61" cy="0.8660254037844386" r="0.22" fill="#423B38" />
<circle cx="62" cy="0.8660254037844386" r="0.22" fill="#423B38" />
<circle cx="6.5" cy="1.7320508075688772" r="0.22" fill="#423B38" />
<circle cx="11.5" cy="1.7320508075688772" r="0.22" fill="#423B38" />
<circle cx="12.5" cy="1.7320508075688772" r="0.22" fill="#423B38" />
<circle cx="13.5" cy="1.7320508075688772" r="0.22" fill="#423B38" />
<circle cx="14.5" cy="1.7320508075688772" r="0.22" fill="#423B38" />
<circle cx="15.5" cy="1.7320508075688772" r="0.22" fill="#423B38" />
<circle cx="16.5" cy="1.7320508075688772" r="0.22" fill="#423B38" />
<circle cx="17.5" cy="1.7320508075688772" r="0.22" fill="#423B38" />
<circle cx="18.5" cy="1.7320508075688772" r="0.22" fill="#423B38" />
<circle cx="19.5" cy="1.7320508075688772" r="0.22" fill="#423B38" />
<circle cx="20.5" cy="1.7320508075688772" r="0.22" fill="#423B38" />
<circle cx="21.5" cy="1.7320508075688772" r="0.22" fill="#423B38" />
<circle cx="22.5" cy="1.7320508075688772" r="0.22" fill="#423B38" />
<circle cx="23.5" cy="1.7320508075688772" r="0.22" fill="#423B38" />
<circle cx="24.5" cy="1.7320508075688772" r="0.22" fill="#423B38" />
<circle cx="25.5" cy="1.7320508075688772" r="0.22" fill="#423B38" />
<circle cx="26.5" cy="1.7320508075688772" r="0.22" fill="#423B38" />
<circle cx="27.5" cy="1.7320508075688772" r="0.22" fill="#423B38" />
<circle cx="28.5" cy="1.7320508075688772" r="0.22" fill="#423B38" />
<circle cx="29.5" cy="1.7320508075688772" r="0.22" fill="#423B38" />
<circle cx="34.5" cy="1.7320508075688772" r="0.22" fill="#423B38" />
<circle cx="39.5" cy="1.7320508075688772" r="0.22" fill="#423B38" />
<circle cx="40.5" cy="1.7320508075688772" r="0.22" fill="#423B38" />
<circle cx="41.5" cy="1.7320508075688772" r="0.22" fill="#423B38" />
<circle cx="42.5" cy="1.7320508075688772" r="0.22" fill="#423B38" />
<circle cx="43.5" cy="1.7320508075688772" r="0.22" fill="#423B38" />
<circle cx="44.5" cy="1.7320508075688772" r="0.22" fill="#423B38" />
<circle cx="45.5" cy="1.7320508075688772" r="0.22" fill="#423B38" />
<circle cx="48.5" cy="1.7320508075688772" r="0.22" fill="#423B38" />
<circle cx="49.5" cy="1.7320508075688772" r="0.22" fill="#423B38" />
<circle cx="50.5" cy="1.7320508075688772" r="0.22" fill="#423B38" />
<circle cx="51.5" cy="1.7320508075688772" r="0.22" fill="#423B38" />
<circle cx="52.5" cy="1.7320508075688772" r="0.22" fill="#423B38" />
<circle cx="53.5" cy="1.7320508075688772" r="0.22" fill="#423B38" />
<circle cx="56.5" cy="1.7320508075688772" r="0.22" fill="#423B38" />
<circle cx="60.5" cy="1.7320508075688772" r="0.22" fill="#423B38" />
<circle cx="61.5" cy="1.7320508075688772" r="0.22" fill="#423B38" />
<circle cx="62.5" cy="1.7320508075688772" r="0.22" fill="#423B38" />
<circle cx="6" cy="2.598076211353316" r="0.22" fill="#423B38" />
<circle cx="7" cy="2.598076211353316" r="0.22" fill="#423B38" />
<circle cx="12" cy="2.598076211353316" r="0.22" fill="#423B38" />
<circle cx="13" cy="2.598076211353316" r="0.22" fill="#423B38" />
<circle cx="14" cy="2.598076211353316" r="0.22" fill="#423B38" />
<circle cx="15" cy="2.598076211353316" r="0.22" fill="#423B38" />
<circle cx="16" cy="2.598076211353316" r="0.22" fill="#423B38" />
<circle cx="17" cy="2.598076211353316" r="0.22" fill="#423B38" />
<circle cx="18" cy="2.598076211353316" r="0.22" fill="#423B38" />
<circle cx="19" cy="2.598076211353316" r="0.22" fill="#423B38" />
<circle cx="20" cy="2.598076211353316" r="0.22" fill="#423B38" />
<circle cx="21" cy="2.598076211353316" r="0.22" fill="#423B38" />
<circle cx="22" cy="2.598076211353316" r="0.22" fill="#423B38" />
<circle cx="23" cy="2.598076211353316" r="0.22" fill="#423B38" />
<circle cx="24" cy="2.598076211353316" r="0.22" fill="#423B38" />
<circle cx="25" cy="2.598076211353316" r="0.22" fill="#423B38" />
<circle cx="29" cy="2.598076211353316" r="0.22" fill="#423B38" />
<circle cx="30" cy="2.598076211353316" r="0.22" fill="#423B38" />
<circle cx="40" cy="2.598076211353316" r="0.22" fill="#423B38" />
<circle cx="41" cy="2.598076211353316" r="0.22" fill="#423B38" />
<circle cx="42" cy="2.598076211353316" r="0.22" fill="#423B38" />
<circle cx="43" cy="2.598076211353316" r="0.22" fill="#423B38" />
<circle cx="44" cy="2.598076211353316" r="0.22" fill="#423B38" />
<circle cx="45" cy="2.598076211353316" r="0.22" fill="#423B38" />
<circle cx="46" cy="2.598076211353316" r="0.22" fill="#423B38" />
<circle cx="47" cy="2.598076211353316" r="0.22" fill="#423B38" />
<circle cx="48" cy="2.598076211353316" r="0.22" fill="#423B38" />
<circle cx="49" cy="2.598076211353316" r="0.22" fill="#423B38" />
<circle cx="50" cy="2.598076211353316" r="0.22" fill="#423B38" />
<circle cx="51" cy="2.598076211353316" r="0.22" fill="#423B38" />
<circle cx="52" cy="2.598076211353316" r="0.22" fill="#423B38" />
<circle cx="53" cy="2.598076211353316" r="0.22" fill="#423B38" />
<circle cx="60" cy="2.598076211353316" r="0.22" fill="#423B38" />
<circle cx="61" cy="2.598076211353316" r="0.22" fill="#423B38" />
<circle cx="62" cy="2.598076211353316" r="0.22" fill="#423B38" />
<circle cx="6.5" cy="3.4641016151377544" r="0.22" fill="#423B38" />
<circle cx="7.5" cy="3.4641016151377544" r="0.22" fill="#423B38" />
<circle cx="8.5" cy="3.4641016151377544" r="0.22" fill="#423B38" />
<circle cx="12.5" cy="3.4641016151377544" r="0.22" fill="#423B38" />
<circle cx="13.5" cy="3.4641016151377544" r="0.22" fill="#423B38" />
<circle cx="14.5" cy="3.4641016151377544" r="0.22" fill="#423B38" />
<circle cx="15.5" cy="3.4641016151377544" r="0.22" fill="#423B38" />
<circle cx="16.5" cy="3.4641016151377544" r="0.22" fill="#423B38" />
<circle cx="17.5" cy="3.4641016151377544" r="0.22" fill="#423B38" />
<circle cx="18.5" cy="3.4641016151377544" r="0.22" fill="#423B38" />
<circle cx="19.5" cy="3.4641016151377544" r="0.22" fill="#423B38" />
<circle cx="20.5" cy="3.4641016151377544" r="0.22" fill="#423B38" />
<circle cx="21.5" cy="3.4641016151377544" r="0.22" fill="#423B38" />
<circle cx="22.5" cy="3.4641016151377544" r="0.22" fill="#423B38" />
<circle cx="40.5" cy="3.4641016151377544" r="0.22" fill="#423B38" />
<circle cx="41.5" cy="3.4641016151377544" r="0.22" fill="#423B38" />
<circle cx="43.5" cy="3.4641016151377544" r="0.22" fill="#423B38" />
<circle cx="44.5" cy="3.4641016151377544" r="0.22" fill="#423B38" />
<circle cx="45.5" cy="3.4641016151377544" r="0.22" fill="#423B38" />
<circle cx="46.5" cy="3.4641016151377544" r="0.22" fill="#423B38" />
<circle cx="47.5" cy="3.4641016151377544" r="0.22" fill="#423B38" />
<circle cx="49.5" cy="3.4641016151377544" r="0.22" fill="#423B38" />
<circle cx="50.5" cy="3.4641016151377544" r="0.22" fill="#423B38" />
<circle cx="51.5" cy="3.4641016151377544" r="0.22" fill="#423B38" />
<circle cx="52.5" cy="3.4641016151377544" r="0.22" fill="#423B38" />
<circle cx="58.5" cy="3.4641016151377544" r="0.22" fill="#423B38" />
<circle cx="59.5" cy="3.4641016151377544" r="0.22" fill="#423B38" />
<circle cx="60.5" cy="3.4641016151377544" r="0.22" fill="#423B38" />
<circle cx="61.5" cy="3.4641016151377544" r="0.22" fill="#423B38" />
<circle cx="62.5" cy="3.4641016151377544" r="0.22" fill="#423B38" />
<circle cx="9" cy="4.330127018922193" r="0.22" fill="#423B38" />
<circle cx="13" cy="4.330127018922193" r="0.22" fill="#423B38" />
<circle cx="14" cy="4.330127018922193" r="0.22" fill="#423B38" />
<circle cx="15" cy="4.330127018922193" r="0.22" fill="#423B38" />
<circle cx="18" cy="4.330127018922193" r="0.22" fill="#423B38" />
<circle cx="19" cy="4.330127018922193" r="0.22" fill="#423B38" />
<circle cx="20" cy="4.330127018922193" r="0.22" fill="#423B38" />
<circle cx="21" cy="4.330127018922193" r="0.22" fill="#423B38" />
<circle cx="22" cy="4.330127018922193" r="0.22" fill="#423B38" />
<circle cx="36" cy="4.330127018922193" r="0.22" fill="#423B38" />
<circle cx="43" cy="4.330127018922193" r="0.22" fill="#423B38" />
<circle cx="44" cy="4.330127018922193" r="0.22" fill="#423B38" />
<circle cx="48" cy="4.330127018922193" r="0.22" fill="#423B38" />
<circle cx="49" cy="4.330127018922193" r="0.22" fill="#423B38" />
<circle cx="50" cy="4.330127018922193" r="0.22" fill="#423B38" />
<circle cx="51" cy="4.330127018922193" r="0.22" fill="#423B38" />
<circle cx="52" cy="4.330127018922193" r="0.22" fill="#423B38" />
<circle cx="58" cy="4.330127018922193" r="0.22" fill="#423B38" />
<circle cx="59" cy="4.330127018922193" r="0.22" fill="#423B38" />
<circle cx="60" cy="4.330127018922193" r="0.22" fill="#423B38" />
<circle cx="61" cy="4.330127018922193" r="0.22" fill="#423B38" />
<circle cx="62" cy="4.330127018922193" r="0.22" fill="#423B38" />
<circle cx="8.5" cy="5.196152422706632" r="0.22" fill="#423B38" />
<circle cx="9.5" cy="5.196152422706632" r="0.22" fill="#423B38" />
<circle cx="14.5" cy="5.196152422706632" r="0.22" fill="#423B38" />
<circle cx="17.5" cy="5.196152422706632" r="0.22" fill="#423B38" />
<circle cx="18.5" cy="5.196152422706632" r="0.22" fill="#423B38" />
<circle cx="19.5" cy="5.196152422706632" r="0.22" fill="#423B38" />
<circle cx="20.5" cy="5.196152422706632" r="0.22" fill="#423B38" />
<circle cx="21.5" cy="5.196152422706632" r="0.22" fill="#423B38" />
<circle cx="44.5" cy="5.196152422706632" r="0.22" fill="#423B38" />
<circle cx="45.5" cy="5.196152422706632" r="0.22" fill="#423B38" />
<circle cx="46.5" cy="5.196152422706632" r="0.22" fill="#423B38" />
<circle cx="48.5" cy="5.196152422706632" r="0.22" fill="#423B38" />
<circle cx="49.5" cy="5.196152422706632" r="0.22" fill="#423B38" />
<circle cx="50.5" cy="5.196152422706632" r="0.22" fill="#423B38" />
<circle cx="56.5" cy="5.196152422706632" r="0.22" fill="#423B38" />
<circle cx="57.5" cy="5.196152422706632" r="0.22" fill="#423B38" />
<circle cx="58.5" cy="5.196152422706632" r="0.22" fill="#423B38" />
<circle cx="59.5" cy="5.196152422706632" r="0.22" fill="#423B38" />
<circle cx="60.5" cy="5.196152422706632" r="0.22" fill="#423B38" />
<circle cx="61.5" cy="5.196152422706632" r="0.22" fill="#423B38" />
<circle cx="62.5" cy="5.196152422706632" r="0.22" fill="#423B38" />
<circle cx="9" cy="6.06217782649107" r="0.22" fill="#423B38" />
<circle cx="10" cy="6.06217782649107" r="0.22" fill="#423B38" />
<circle cx="16" cy="6.06217782649107" r="0.22" fill="#423B38" />
<circle cx="17" cy="6.06217782649107" r="0.22" fill="#423B38" />
<circle cx="18" cy="6.06217782649107" r="0.22" fill="#423B38" />
<circle cx="19" cy="6.06217782649107" r="0.22" fill="#423B38" />
<circle cx="20" cy="6.06217782649107" r="0.22" fill="#423B38" />
<circle cx="46" cy="6.06217782649107" r="0.22" fill="#423B38" />
<circle cx="47" cy="6.06217782649107" r="0.22" fill="#423B38" />
<circle cx="48" cy="6.06217782649107" r="0.22" fill="#423B38" />
<circle cx="49" cy="6.06217782649107" r="0.22" fill="#423B38" />
<circle cx="50" cy="6.06217782649107" r="0.22" fill="#423B38" />
<circle cx="51" cy="6.06217782649107" r="0.22" fill="#423B38" />
<circle cx="56" cy="6.06217782649107" r="0.22" fill="#423B38" />
<circle cx="57" cy="6.06217782649107" r="0.22" fill="#423B38" />
<circle cx="58" cy="6.06217782649107" r="0.22" fill="#423B38" />
<circle cx="59" cy="6.06217782649107" r="0.22" fill="#423B38" />
<circle cx="60" cy="6.06217782649107" r="0.22" fill="#423B38" />
<circle cx="61" cy="6.06217782649107" r="0.22" fill="#423B38" />
<circle cx="62" cy="6.06217782649107" r="0.22" fill="#423B38" />
<circle cx="9.5" cy="6.928203230275509" r="0.22" fill="#423B38" />
<circle cx="17.5" cy="6.928203230275509" r="0.22" fill="#423B38" />
<circle cx="18.5" cy="6.928203230275509" r="0.22" fill="#423B38" />
<circle cx="19.5" cy="6.928203230275509" r="0.22" fill="#423B38" />
<circle cx="35.5" cy="6.928203230275509" r="0.22" fill="#423B38" />
<circle cx="36.5" cy="6.928203230275509" r="0.22" fill="#423B38" />
<circle cx="37.5" cy="6.928203230275509" r="0.22" fill="#423B38" />
<circle cx="49.5" cy="6.928203230275509" r="0.22" fill="#423B38" />
<circle cx="50.5" cy="6.928203230275509" r="0.22" fill="#423B38" />
<circle cx="51.5" cy="6.928203230275509" r="0.22" fill="#423B38" />
<circle cx="55.5" cy="6.928203230275509" r="0.22" fill="#423B38" />
<circle cx="56.5" cy="6.928203230275509" r="0.22" fill="#423B38" />
<circle cx="57.5" cy="6.928203230275509" r="0.22" fill="#423B38" />
<circle cx="58.5" cy="6.928203230275509" r="0.22" fill="#423B38" />
<circle cx="59.5" cy="6.928203230275509" r="0.22" fill="#423B38" />
<circle cx="60.5" cy="6.928203230275509" r="0.22" fill="#423B38" />
<circle cx="61.5" cy="6.928203230275509" r="0.22" fill="#423B38" />
<circle cx="62.5" cy="6.928203230275509" r="0.22" fill="#423B38" />
<circle cx="13" cy="7.794228634059947" r="0.22" fill="#423B38" />
<circle cx="14" cy="7.794228634059947" r="0.22" fill="#423B38" />
<circle cx="15" cy="7.794228634059947" r="0.22" fill="#423B38" />
<circle cx="16" cy="7.794228634059947" r="0.22" fill="#423B38" />
<circle cx="17" cy="7.794228634059947" r="0.22" fill="#423B38" />
<circle cx="18" cy="7.794228634059947" r="0.22" fill="#423B38" />
<circle cx="19" cy="7.794228634059947" r="0.22" fill="#423B38" />
<circle cx="20" cy="7.794228634059947" r="0.22" fill="#423B38" />
<circle cx="35" cy="7.794228634059947" r="0.22" fill="#423B38" />
<circle cx="36" cy="7.794228634059947" r="0.22" fill="#423B38" />
<circle cx="37" cy="7.794228634059947" r="0.22" fill="#423B38" />
<circle cx="38" cy="7.794228634059947" r="0.22" fill="#423B38" />
<circle cx="39" cy="7.794228634059947" r="0.22" fill="#423B38" />
<circle cx="51" cy="7.794228634059947" r="0.22" fill="#423B38" />
<circle cx="52" cy="7.794228634059947" r="0.22" fill="#423B38" />
<circle cx="53" cy="7.794228634059947" r="0.22" fill="#423B38" />
<circle cx="54" cy="7.794228634059947" r="0.22" fill="#423B38" />
<circle cx="55" cy="7.794228634059947" r="0.22" fill="#423B38" />
<circle cx="56" cy="7.794228634059947" r="0.22" fill="#423B38" />
<circle cx="57" cy="7.794228634059947" r="0.22" fill="#423B38" />
<circle cx="58" cy="7.794228634059947" r="0.22" fill="#423B38" />
<circle cx="59" cy="7.794228634059947" r="0.22" fill="#423B38" />
<circle cx="60" cy="7.794228634059947" r="0.22" fill="#423B38" />
<circle cx="61" cy="7.794228634059947" r="0.22" fill="#423B38" />
<circle cx="62" cy="7.794228634059947" r="0.22" fill="#423B38" />
<circle cx="16.5" cy="8.660254037844386" r="0.22" fill="#423B38" />
<circle cx="17.5" cy="8.660254037844386" r="0.22" fill="#423B38" />
<circle cx="18.5" cy="8.660254037844386" r="0.22" fill="#423B38" />
<circle cx="19.5" cy="8.660254037844386" r="0.22" fill="#423B38" />
<circle cx="32.5" cy="8.660254037844386" r="0.22" fill="#423B38" />
<circle cx="33.5" cy="8.660254037844386" r="0.22" fill="#423B38" />
<circle cx="34.5" cy="8.660254037844386" r="0.22" fill="#423B38" />
<circle cx="35.5" cy="8.660254037844386" r="0.22" fill="#423B38" />
<circle cx="36.5" cy="8.660254037844386" r="0.22" fill="#423B38" />
<circle cx="37.5" cy="8.660254037844386" r="0.22" fill="#423B38" />
<circle cx="38.5" cy="8.660254037844386" r="0.22" fill="#423B38" />
<circle cx="39.5" cy="8.660254037844386" r="0.22" fill="#423B38" />
<circle cx="40.5" cy="8.660254037844386" r="0.22" fill="#423B38" />
<circle cx="41.5" cy="8.660254037844386" r="0.22" fill="#423B38" />
<circle cx="44.5" cy="8.660254037844386" r="0.22" fill="#423B38" />
<circle cx="48.5" cy="8.660254037844386" r="0.22" fill="#423B38" />
<circle cx="49.5" cy="8.660254037844386" r="0.22" fill="#423B38" />
<circle cx="50.5" cy="8.660254037844386" r="0.22" fill="#423B38" />
<circle cx="51.5" cy="8.660254037844386" r="0.22" fill="#423B38" />
<circle cx="52.5" cy="8.660254037844386" r="0.22" fill="#423B38" />
<circle cx="55.5" cy="8.660254037844386" r="0.22" fill="#423B38" />
<circle cx="56.5" cy="8.660254037844386" r="0.22" fill="#423B38" />
<circle cx="57.5" cy="8.660254037844386" r="0.22" fill="#423B38" />
<circle cx="58.5" cy="8.660254037844386" r="0.22" fill="#423B38" />
<circle cx="59.5" cy="8.660254037844386" r="0.22" fill="#423B38" />
<circle cx="60.5" cy="8.660254037844386" r="0.22" fill="#423B38" />
<circle cx="61.5" cy="8.660254037844386" r="0.22" fill="#423B38" />
<circle cx="62.5" cy="8.660254037844386" r="0.22" fill="#423B38" />
<circle cx="17" cy="9.526279441628825" r="0.22" fill="#423B38" />
<circle cx="19" cy="9.526279441628825" r="0.22" fill="#423B38" />
<circle cx="32" cy="9.526279441628825" r="0.22" fill="#423B38" />
<circle cx="33" cy="9.526279441628825" r="0.22" fill="#423B38" />
<circle cx="34" cy="9.526279441628825" r="0.22" fill="#423B38" />
<circle cx="35" cy="9.526279441628825" r="0.22" fill="#423B38" />
<circle cx="36" cy="9.526279441628825" r="0.22" fill="#423B38" />
<circle cx="37" cy="9.526279441628825" r="0.22" fill="#423B38" />
<circle cx="38" cy="9.526279441628825" r="0.22" fill="#423B38" />
<circle cx="39" cy="9.526279441628825" r="0.22" fill="#423B38" />
<circle cx="40" cy="9.526279441628825" r="0.22" fill="#423B38" />
<circle cx="41" cy="9.526279441628825" r="0.22" fill="#423B38" />
<circle cx="42" cy="9.526279441628825" r="0.22" fill="#423B38" />
<circle cx="44" cy="9.526279441628825" r="0.22" fill="#423B38" />
<circle cx="45" cy="9.526279441628825" r="0.22" fill="#423B38" />
<circle cx="51" cy="9.526279441628825" r="0.22" fill="#423B38" />
<circle cx="52" cy="9.526279441628825" r="0.22" fill="#423B38" />
<circle cx="53" cy="9.526279441628825" r="0.22" fill="#423B38" />
<circle cx="56" cy="9.526279441628825" r="0.22" fill="#423B38" />
<circle cx="57" cy="9.526279441628825" r="0.22" fill="#423B38" />
<circle cx="58" cy="9.526279441628825" r="0.22" fill="#423B38" />
<circle cx="59" cy="9.526279441628825" r="0.22" fill="#423B38" />
<circle cx="60" cy="9.526279441628825" r="0.22" fill="#423B38" />
<circle cx="61" cy="9.526279441628825" r="0.22" fill="#423B38" />
<circle cx="62" cy="9.526279441628825" r="0.22" fill="#423B38" />
<circle cx="18.5" cy="10.392304845413264" r="0.22" fill="#423B38" />
<circle cx="19.5" cy="10.392304845413264" r="0.22" fill="#423B38" />
<circle cx="32.5" cy="10.392304845413264" r="0.22" fill="#423B38" />
<circle cx="33.5" cy="10.392304845413264" r="0.22" fill="#423B38" />
<circle cx="35.5" cy="10.392304845413264" r="0.22" fill="#423B38" />
<circle cx="37.5" cy="10.392304845413264" r="0.22" fill="#423B38" />
<circle cx="38.5" cy="10.392304845413264" r="0.22" fill="#423B38" />
<circle cx="39.5" cy="10.392304845413264" r="0.22" fill="#423B38" />
<circle cx="40.5" cy="10.392304845413264" r="0.22" fill="#423B38" />
<circle cx="41.5" cy="10.392304845413264" r="0.22" fill="#423B38" />
<circle cx="50.5" cy="10.392304845413264" r="0.22" fill="#423B38" />
<circle cx="52.5" cy="10.392304845413264" r="0.22" fill="#423B38" />
<circle cx="53.5" cy="10.392304845413264" r="0.22" fill="#423B38" />
<circle cx="55.5" cy="10.392304845413264" r="0.22" fill="#423B38" />
<circle cx="56.5" cy="10.392304845413264" r="0.22" fill="#423B38" />
<circle cx="57.5" cy="10.392304845413264" r="0.22" fill="#423B38" />
<circle cx="58.5" cy="10.392304845413264" r="0.22" fill="#423B38" />
<circle cx="59.5" cy="10.392304845413264" r="0.22" fill="#423B38" />
<circle cx="60.5" cy="10.392304845413264" r="0.22" fill="#423B38" />
<circle cx="61.5" cy="10.392304845413264" r="0.22" fill="#423B38" />
<circle cx="62.5" cy="10.392304845413264" r="0.22" fill="#423B38" />
<circle cx="20" cy="11.258330249197702" r="0.22" fill="#423B38" />
<circle cx="21" cy="11.258330249197702" r="0.22" fill="#423B38" />
<circle cx="22" cy="11.258330249197702" r="0.22" fill="#423B38" />
<circle cx="23" cy="11.258330249197702" r="0.22" fill="#423B38" />
<circle cx="39" cy="11.258330249197702" r="0.22" fill="#423B38" />
<circle cx="40" cy="11.258330249197702" r="0.22" fill="#423B38" />
<circle cx="41" cy="11.258330249197702" r="0.22" fill="#423B38" />
<circle cx="42" cy="11.258330249197702" r="0.22" fill="#423B38" />
<circle cx="56" cy="11.258330249197702" r="0.22" fill="#423B38" />
<circle cx="57" cy="11.258330249197702" r="0.22" fill="#423B38" />
<circle cx="58" cy="11.258330249197702" r="0.22" fill="#423B38" />
<circle cx="59" cy="11.258330249197702" r="0.22" fill="#423B38" />
<circle cx="60" cy="11.258330249197702" r="0.22" fill="#423B38" />
<circle cx="61" cy="11.258330249197702" r="0.22" fill="#423B38" />
<circle cx="62" cy="11.258330249197702" r="0.22" fill="#423B38" />
<circle cx="19.5" cy="12.12435565298214" r="0.22" fill="#423B38" />
<circle cx="20.5" cy="12.12435565298214" r="0.22" fill="#423B38" />
<circle cx="21.5" cy="12.12435565298214" r="0.22" fill="#423B38" />
<circle cx="22.5" cy="12.12435565298214" r="0.22" fill="#423B38" />
<circle cx="23.5" cy="12.12435565298214" r="0.22" fill="#423B38" />
<circle cx="28.5" cy="12.12435565298214" r="0.22" fill="#423B38" />
<circle cx="34.5" cy="12.12435565298214" r="0.22" fill="#423B38" />
<circle cx="39.5" cy="12.12435565298214" r="0.22" fill="#423B38" />
<circle cx="40.5" cy="12.12435565298214" r="0.22" fill="#423B38" />
<circle cx="41.5" cy="12.12435565298214" r="0.22" fill="#423B38" />
<circle cx="42.5" cy="12.12435565298214" r="0.22" fill="#423B38" />
<circle cx="54.5" cy="12.12435565298214" r="0.22" fill="#423B38" />
<circle cx="55.5" cy="12.12435565298214" r="0.22" fill="#423B38" />
<circle cx="56.5" cy="12.12435565298214" r="0.22" fill="#423B38" />
<circle cx="57.5" cy="12.12435565298214" r="0.22" fill="#423B38" />
<circle cx="58.5" cy="12.12435565298214" r="0.22" fill="#423B38" />
<circle cx="59.5" cy="12.12435565298214" r="0.22" fill="#423B38" />
<circle cx="60.5" cy="12.12435565298214" r="0.22" fill="#423B38" />
<circle cx="61.5" cy="12.12435565298214" r="0.22" fill="#423B38" />
<circle cx="62.5" cy="12.12435565298214" r="0.22" fill="#423B38" />
<circle cx="17" cy="12.990381056766578" r="0.22" fill="#423B38" />
<circle cx="18" cy="12.990381056766578" r="0.22" fill="#423B38" />
<circle cx="19" cy="12.990381056766578" r="0.22" fill="#423B38" />
<circle cx="20" cy="12.990381056766578" r="0.22" fill="#423B38" />
<circle cx="21" cy="12.990381056766578" r="0.22" fill="#423B38" />
<circle cx="22" cy="12.990381056766578" r="0.22" fill="#423B38" />
<circle cx="23" cy="12.990381056766578" r="0.22" fill="#423B38" />
<circle cx="24" cy="12.990381056766578" r="0.22" fill="#423B38" />
<circle cx="28" cy="12.990381056766578" r="0.22" fill="#423B38" />
<circle cx="29" cy="12.990381056766578" r="0.22" fill="#423B38" />
<circle cx="30" cy="12.990381056766578" r="0.22" fill="#423B38" />
<circle cx="32" cy="12.990381056766578" r="0.22" fill="#423B38" />
<circle cx="34" cy="12.990381056766578" r="0.22" fill="#423B38" />
<circle cx="35" cy="12.990381056766578" r="0.22" fill="#423B38" />
<circle cx="36" cy="12.990381056766578" r="0.22" fill="#423B38" />
<circle cx="41" cy="12.990381056766578" r="0.22" fill="#423B38" />
<circle cx="42" cy="12.990381056766578" r="0.22" fill="#423B38" />
<circle cx="43" cy="12.990381056766578" r="0.22" fill="#423B38" />
<circle cx="55" cy="12.990381056766578" r="0.22" fill="#423B38" />
<circle cx="56" cy="12.990381056766578" r="0.22" fill="#423B38" />
<circle cx="57" cy="12.990381056766578" r="0.22" fill="#423B38" />
<circle cx="58" cy="12.990381056766578" r="0.22" fill="#423B38" />
<circle cx="59" cy="12.990381056766578" r="0.22" fill="#423B38" />
<circle cx="60" cy="12.990381056766578" r="0.22" fill="#423B38" />
<circle cx="61" cy="12.990381056766578" r="0.22" fill="#423B38" />
<circle cx="62" cy="12.990381056766578" r="0.22" fill="#423B38" />
<circle cx="17.5" cy="13.856406460551018" r="0.22" fill="#423B38" />
<circle cx="18.5" cy="13.856406460551018" r="0.22" fill="#423B38" />
<circle cx="19.5" cy="13.856406460551018" r="0.22" fill="#423B38" />
<circle cx="20.5" cy="13.856406460551018" r="0.22" fill="#423B38" />
<circle cx="21.5" cy="13.856406460551018" r="0.22" fill="#423B38" />
<circle cx="22.5" cy="13.856406460551018" r="0.22" fill="#423B38" />
<circle cx="23.5" cy="13.856406460551018" r="0.22" fill="#423B38" />
<circle cx="24.5" cy="13.856406460551018" r="0.22" fill="#423B38" />
<circle cx="25.5" cy="13.856406460551018" r="0.22" fill="#423B38" />
<circle cx="26.5" cy="13.856406460551018" r="0.22" fill="#423B38" />
<circle cx="27.5" cy="13.856406460551018" r="0.22" fill="#423B38" />
<circle cx="29.5" cy="13.856406460551018" r="0.22" fill="#423B38" />
<circle cx="30.5" cy="13.856406460551018" r="0.22" fill="#423B38" />
<circle cx="32.5" cy="13.856406460551018" r="0.22" fill="#423B38" />
<circle cx="34.5" cy="13.856406460551018" r="0.22" fill="#423B38" />
<circle cx="36.5" cy="13.856406460551018" r="0.22" fill="#423B38" />
<circle cx="37.5" cy="13.856406460551018" r="0.22" fill="#423B38" />
<circle cx="41.5" cy="13.856406460551018" r="0.22" fill="#423B38" />
<circle cx="42.5" cy="13.856406460551018" r="0.22" fill="#423B38" />
<circle cx="43.5" cy="13.856406460551018" r="0.22" fill="#423B38" />
<circle cx="55.5" cy="13.856406460551018" r="0.22" fill="#423B38" />
<circle cx="56.5" cy="13.856406460551018" r="0.22" fill="#423B38" />
<circle cx="57.5" cy="13.856406460551018" r="0.22" fill="#423B38" />
<circle cx="58.5" cy="13.856406460551018" r="0.22" fill="#423B38" />
<circle cx="59.5" cy="13.856406460551018" r="0.22" fill="#423B38" />
<circle cx="60.5" cy="13.856406460551018" r="0.22" fill="#423B38" />
<circle cx="61.5" cy="13.856406460551018" r="0.22" fill="#423B38" />
<circle cx="62.5" cy="13.856406460551018" r="0.22" fill="#423B38" />
<circle cx="18" cy="14.722431864335457" r="0.22" fill="#423B38" />
<circle cx="19" cy="14.722431864335457" r="0.22" fill="#423B38" />
<circle cx="20" cy="14.722431864335457" r="0.22" fill="#423B38" />
<circle cx="21" cy="14.722431864335457" r="0.22" fill="#423B38" />
<circle cx="22" cy="14.722431864335457" r="0.22" fill="#423B38" />
<circle cx="23" cy="14.722431864335457" r="0.22" fill="#423B38" />
<circle cx="24" cy="14.722431864335457" r="0.22" fill="#423B38" />
<circle cx="25" cy="14.722431864335457" r="0.22" fill="#423B38" />
<circle cx="26" cy="14.722431864335457" r="0.22" fill="#423B38" />
<circle cx="27" cy="14.722431864335457" r="0.22" fill="#423B38" />
<circle cx="28" cy="14.722431864335457" r="0.22" fill="#423B38" />
<circle cx="31" cy="14.722431864335457" r="0.22" fill="#423B38" />
<circle cx="33" cy="14.722431864335457" r="0.22" fill="#423B38" />
<circle cx="35" cy="14.722431864335457" r="0.22" fill="#423B38" />
<circle cx="38" cy="14.722431864335457" r="0.22" fill="#423B38" />
<circle cx="39" cy="14.722431864335457" r="0.22" fill="#423B38" />
<circle cx="43" cy="14.722431864335457" r="0.22" fill="#423B38" />
<circle cx="44" cy="14.722431864335457" r="0.22" fill="#423B38" />
<circle cx="58" cy="14.722431864335457" r="0.22" fill="#423B38" />
<circle cx="59" cy="14.722431864335457" r="0.22" fill="#423B38" />
<circle cx="60" cy="14.722431864335457" r="0.22" fill="#423B38" />
<circle cx="61" cy="14.722431864335457" r="0.22" fill="#423B38" />
<circle cx="62" cy="14.722431864335457" r="0.22" fill="#423B38" />
<circle cx="15.5" cy="15.588457268119894" r="0.22" fill="#423B38" />
<circle cx="16.5" cy="15.588457268119894" r="0.22" fill="#423B38" />
<circle cx="17.5" cy="15.588457268119894" r="0.22" fill="#423B38" />
<circle cx="19.5" cy="15.588457268119894" r="0.22" fill="#423B38" />
<circle cx="20.5" cy="15.588457268119894" r="0.22" fill="#423B38" />
<circle cx="21.5" cy="15.588457268119894" r="0.22" fill="#423B38" />
<circle cx="22.5" cy="15.588457268119894" r="0.22" fill="#423B38" />
<circle cx="23.5" cy="15.588457268119894" r="0.22" fill="#423B38" />
<circle cx="24.5" cy="15.588457268119894" r="0.22" fill="#423B38" />
<circle cx="25.5" cy="15.588457268119894" r="0.22" fill="#423B38" />
<circle cx="26.5" cy="15.588457268119894" r="0.22" fill="#423B38" />
<circle cx="27.5" cy="15.588457268119894" r="0.22" fill="#423B38" />
<circle cx="28.5" cy="15.588457268119894" r="0.22" fill="#423B38" />
<circle cx="29.5" cy="15.588457268119894" r="0.22" fill="#423B38" />
<circle cx="30.5" cy="15.588457268119894" r="0.22" fill="#423B38" />
<circle cx="31.5" cy="15.588457268119894" r="0.22" fill="#423B38" />
<circle cx="32.5" cy="15.588457268119894" r="0.22" fill="#423B38" />
<circle cx="33.5" cy="15.588457268119894" r="0.22" fill="#423B38" />
<circle cx="34.5" cy="15.588457268119894" r="0.22" fill="#423B38" />
<circle cx="37.5" cy="15.588457268119894" r="0.22" fill="#423B38" />
<circle cx="38.5" cy="15.588457268119894" r="0.22" fill="#423B38" />
<circle cx="58.5" cy="15.588457268119894" r="0.22" fill="#423B38" />
<circle cx="59.5" cy="15.588457268119894" r="0.22" fill="#423B38" />
<circle cx="60.5" cy="15.588457268119894" r="0.22" fill="#423B38" />
<circle cx="61.5" cy="15.588457268119894" r="0.22" fill="#423B38" />
<circle cx="62.5" cy="15.588457268119894" r="0.22" fill="#423B38" />
<circle cx="21" cy="16.454482671904334" r="0.22" fill="#423B38" />
<circle cx="22" cy="16.454482671904334" r="0.22" fill="#423B38" />
<circle cx="23" cy="16.454482671904334" r="0.22" fill="#423B38" />
<circle cx="24" cy="16.454482671904334" r="0.22" fill="#423B38" />
<circle cx="25" cy="16.454482671904334" r="0.22" fill="#423B38" />
<circle cx="26" cy="16.454482671904334" r="0.22" fill="#423B38" />
<circle cx="27" cy="16.454482671904334" r="0.22" fill="#423B38" />
<circle cx="28" cy="16.454482671904334" r="0.22" fill="#423B38" />
<circle cx="29" cy="16.454482671904334" r="0.22" fill="#423B38" />
<circle cx="30" cy="16.454482671904334" r="0.22" fill="#423B38" />
<circle cx="31" cy="16.454482671904334" r="0.22" fill="#423B38" />
<circle cx="32" cy="16.454482671904334" r="0.22" fill="#423B38" />
<circle cx="33" cy="16.454482671904334" r="0.22" fill="#423B38" />
<circle cx="34" cy="16.454482671904334" r="0.22" fill="#423B38" />
<circle cx="35" cy="16.454482671904334" r="0.22" fill="#423B38" />
<circle cx="39" cy="16.454482671904334" r="0.22" fill="#423B38" />
<circle cx="58" cy="16.454482671904334" r="0.22" fill="#423B38" />
<circle cx="59" cy="16.454482671904334" r="0.22" fill="#423B38" />
<circle cx="60" cy="16.454482671904334" r="0.22" fill="#423B38" />
<circle cx="61" cy="16.454482671904334" r="0.22" fill="#423B38" />
<circle cx="62" cy="16.454482671904334" r="0.22" fill="#423B38" />
<circle cx="21.5" cy="17.32050807568877" r="0.22" fill="#423B38" />
<circle cx="22.5" cy="17.32050807568877" r="0.22" fill="#423B38" />
<circle cx="23.5" cy="17.32050807568877" r="0.22" fill="#423B38" />
<circle cx="24.5" cy="17.32050807568877" r="0.22" fill="#423B38" />
<circle cx="25.5" cy="17.32050807568877" r="0.22" fill="#423B38" />
<circle cx="26.5" cy="17.32050807568877" r="0.22" fill="#423B38" />
<circle cx="27.5" cy="17.32050807568877" r="0.22" fill="#423B38" />
<circle cx="28.5" cy="17.32050807568877" r="0.22" fill="#423B38" />
<circle cx="29.5" cy="17.32050807568877" r="0.22" fill="#423B38" />
<circle cx="30.5" cy="17.32050807568877" r="0.22" fill="#423B38" />
<circle cx="31.5" cy="17.32050807568877" r="0.22" fill="#423B38" />
<circle cx="32.5" cy="17.32050807568877" r="0.22" fill="#423B38" />
<circle cx="33.5" cy="17.32050807568877" r="0.22" fill="#423B38" />
<circle cx="37.5" cy="17.32050807568877" r="0.22" fill="#423B38" />
<circle cx="38.5" cy="17.32050807568877" r="0.22" fill="#423B38" />
<circle cx="58.5" cy="17.32050807568877" r="0.22" fill="#423B38" />
<circle cx="59.5" cy="17.32050807568877" r="0.22" fill="#423B38" />
<circle cx="60.5" cy="17.32050807568877" r="0.22" fill="#423B38" />
<circle cx="61.5" cy="17.32050807568877" r="0.22" fill="#423B38" />
<circle cx="62.5" cy="17.32050807568877" r="0.22" fill="#423B38" />
<circle cx="22" cy="18.186533479473212" r="0.22" fill="#423B38" />
<circle cx="23" cy="18.186533479473212" r="0.22" fill="#423B38" />
<circle cx="24" cy="18.186533479473212" r="0.22" fill="#423B38" />
<circle cx="25" cy="18.186533479473212" r="0.22" fill="#423B38" />
<circle cx="26" cy="18.186533479473212" r="0.22" fill="#423B38" />
<circle cx="27" cy="18.186533479473212" r="0.22" fill="#423B38" />
<circle cx="28" cy="18.186533479473212" r="0.22" fill="#423B38" />
<circle cx="29" cy="18.186533479473212" r="0.22" fill="#423B38" />
<circle cx="30" cy="18.186533479473212" r="0.22" fill="#423B38" />
<circle cx="31" cy="18.186533479473212" r="0.22" fill="#423B38" />
<circle cx="32" cy="18.186533479473212" r="0.22" fill="#423B38" />
<circle cx="33" cy="18.186533479473212" r="0.22" fill="#423B38" />
<circle cx="38" cy="18.186533479473212" r="0.22" fill="#423B38" />
<circle cx="39" cy="18.186533479473212" r="0.22" fill="#423B38" />
<circle cx="41" cy="18.186533479473212" r="0.22" fill="#423B38" />
<circle cx="42" cy="18.186533479473212" r="0.22" fill="#423B38" />
<circle cx="60" cy="18.186533479473212" r="0.22" fill="#423B38" />
<circle cx="61" cy="18.186533479473212" r="0.22" fill="#423B38" />
<circle cx="62" cy="18.186533479473212" r="0.22" fill="#423B38" />
<circle cx="22.5" cy="19.05255888325765" r="0.22" fill="#423B38" />
<circle cx="23.5" cy="19.05255888325765" r="0.22" fill="#423B38" />
<circle cx="24.5" cy="19.05255888325765" r="0.22" fill="#423B38" />
<circle cx="25.5" cy="19.05255888325765" r="0.22" fill="#423B38" />
<circle cx="26.5" cy="19.05255888325765" r="0.22" fill="#423B38" />
<circle cx="27.5" cy="19.05255888325765" r="0.22" fill="#423B38" />
<circle cx="28.5" cy="19.05255888325765" r="0.22" fill="#423B38" />
<circle cx="29.5" cy="19.05255888325765" r="0.22" fill="#423B38" />
<circle cx="30.5" cy="19.05255888325765" r="0.22" fill="#423B38" />
<circle cx="31.5" cy="19.05255888325765" r="0.22" fill="#423B38" />
<circle cx="32.5" cy="19.05255888325765" r="0.22" fill="#423B38" />
<circle cx="37.5" cy="19.05255888325765" r="0.22" fill="#423B38" />
<circle cx="38.5" cy="19.05255888325765" r="0.22" fill="#423B38" />
<circle cx="39.5" cy="19.05255888325765" r="0.22" fill="#423B38" />
<circle cx="40.5" cy="19.05255888325765" r="0.22" fill="#423B38" />
<circle cx="41.5" cy="19.05255888325765" r="0.22" fill="#423B38" />
<circle cx="42.5" cy="19.05255888325765" r="0.22" fill="#423B38" />
<circle cx="43.5" cy="19.05255888325765" r="0.22" fill="#423B38" />
<circle cx="59.5" cy="19.05255888325765" r="0.22" fill="#423B38" />
<circle cx="60.5" cy="19.05255888325765" r="0.22" fill="#423B38" />
<circle cx="61.5" cy="19.05255888325765" r="0.22" fill="#423B38" />
<circle cx="62.5" cy="19.05255888325765" r="0.22" fill="#423B38" />
<circle cx="23" cy="19.918584287042087" r="0.22" fill="#423B38" />
<circle cx="24" cy="19.918584287042087" r="0.22" fill="#423B38" />
<circle cx="25" cy="19.918584287042087" r="0.22" fill="#423B38" />
<circle cx="26" cy="19.918584287042087" r="0.22" fill="#423B38" />
<circle cx="27" cy="19.918584287042087" r="0.22" fill="#423B38" />
<circle cx="28" cy="19.918584287042087" r="0.22" fill="#423B38" />
<circle cx="29" cy="19.918584287042087" r="0.22" fill="#423B38" />
<circle cx="30" cy="19.918584287042087" r="0.22" fill="#423B38" />
<circle cx="31" cy="19.918584287042087" r="0.22" fill="#423B38" />
<circle cx="32" cy="19.918584287042087" r="0.22" fill="#423B38" />
<circle cx="33" cy="19.918584287042087" r="0.22" fill="#423B38" />
<circle cx="39" cy="19.918584287042087" r="0.22" fill="#423B38" />
<circle cx="40" cy="19.918584287042087" r="0.22" fill="#423B38" />
<circle cx="41" cy="19.918584287042087" r="0.22" fill="#423B38" />
<circle cx="42" cy="19.918584287042087" r="0.22" fill="#423B38" />
<circle cx="43" cy="19.918584287042087" r="0.22" fill="#423B38" />
<circle cx="44" cy="19.918584287042087" r="0.22" fill="#423B38" />
<circle cx="45" cy="19.918584287042087" r="0.22" fill="#423B38" />
<circle cx="60" cy="19.918584287042087" r="0.22" fill="#423B38" />
<circle cx="61" cy="19.918584287042087" r="0.22" fill="#423B38" />
<circle cx="62" cy="19.918584287042087" r="0.22" fill="#423B38" />
<circle cx="21.5" cy="20.784609690826528" r="0.22" fill="#423B38" />
<circle cx="22.5" cy="20.784609690826528" r="0.22" fill="#423B38" />
<circle cx="23.5" cy="20.784609690826528" r="0.22" fill="#423B38" />
<circle cx="24.5" cy="20.784609690826528" r="0.22" fill="#423B38" />
<circle cx="25.5" cy="20.784609690826528" r="0.22" fill="#423B38" />
<circle cx="26.5" cy="20.784609690826528" r="0.22" fill="#423B38" />
<circle cx="27.5" cy="20.784609690826528" r="0.22" fill="#423B38" />
<circle cx="28.5" cy="20.784609690826528" r="0.22" fill="#423B38" />
<circle cx="29.5" cy="20.784609690826528" r="0.22" fill="#423B38" />
<circle cx="30.5" cy="20.784609690826528" r="0.22" fill="#423B38" />
<circle cx="31.5" cy="20.784609690826528" r="0.22" fill="#423B38" />
<circle cx="32.5" cy="20.784609690826528" r="0.22" fill="#423B38" />
<circle cx="33.5" cy="20.784609690826528" r="0.22" fill="#423B38" />
<circle cx="34.5" cy="20.784609690826528" r="0.22" fill="#423B38" />
<circle cx="38.5" cy="20.784609690826528" r="0.22" fill="#423B38" />
<circle cx="39.5" cy="20.784609690826528" r="0.22" fill="#423B38" />
<circle cx="40.5" cy="20.784609690826528" r="0.22" fill="#423B38" />
<circle cx="41.5" cy="20.784609690826528" r="0.22" fill="#423B38" />
<circle cx="42.5" cy="20.784609690826528" r="0.22" fill="#423B38" />
<circle cx="43.5" cy="20.784609690826528" r="0.22" fill="#423B38" />
<circle cx="44.5" cy="20.784609690826528" r="0.22" fill="#423B38" />
<circle cx="60.5" cy="20.784609690826528" r="0.22" fill="#423B38" />
<circle cx="61.5" cy="20.784609690826528" r="0.22" fill="#423B38" />
<circle cx="62.5" cy="20.784609690826528" r="0.22" fill="#423B38" />
<circle cx="23" cy="21.650635094610966" r="0.22" fill="#423B38" />
<circle cx="24" cy="21.650635094610966" r="0.22" fill="#423B38" />
<circle cx="25" cy="21.650635094610966" r="0.22" fill="#423B38" />
<circle cx="26" cy="21.650635094610966" r="0.22" fill="#423B38" />
<circle cx="27" cy="21.650635094610966" r="0.22" fill="#423B38" />
<circle cx="28" cy="21.650635094610966" r="0.22" fill="#423B38" />
<circle cx="29" cy="21.650635094610966" r="0.22" fill="#423B38" />
<circle cx="30" cy="21.650635094610966" r="0.22" fill="#423B38" />
<circle cx="31" cy="21.650635094610966" r="0.22" fill="#423B38" />
<circle cx="32" cy="21.650635094610966" r="0.22" fill="#423B38" />
<circle cx="33" cy="21.650635094610966" r="0.22" fill="#423B38" />
<circle cx="34" cy="21.650635094610966" r="0.22" fill="#423B38" />
<circle cx="35" cy="21.650635094610966" r="0.22" fill="#423B38" />
<circle cx="36" cy="21.650635094610966" r="0.22" fill="#423B38" />
<circle cx="37" cy="21.650635094610966" r="0.22" fill="#423B38" />
<circle cx="39" cy="21.650635094610966" r="0.22" fill="#423B38" />
<circle cx="40" cy="21.650635094610966" r="0.22" fill="#423B38" />
<circle cx="41" cy="21.650635094610966" r="0.22" fill="#423B38" />
<circle cx="42" cy="21.650635094610966" r="0.22" fill="#423B38" />
<circle cx="43" cy="21.650635094610966" r="0.22" fill="#423B38" />
<circle cx="44" cy="21.650635094610966" r="0.22" fill="#423B38" />
<circle cx="46" cy="21.650635094610966" r="0.22" fill="#423B38" />
<circle cx="47" cy="21.650635094610966" r="0.22" fill="#423B38" />
<circle cx="61" cy="21.650635094610966" r="0.22" fill="#423B38" />
<circle cx="62" cy="21.650635094610966" r="0.22" fill="#423B38" />
<circle cx="22.5" cy="22.516660498395403" r="0.22" fill="#423B38" />
<circle cx="23.5" cy="22.516660498395403" r="0.22" fill="#423B38" />
<circle cx="24.5" cy="22.516660498395403" r="0.22" fill="#423B38" />
<circle cx="25.5" cy="22.516660498395403" r="0.22" fill="#423B38" />
<circle cx="26.5" cy="22.516660498395403" r="0.22" fill="#423B38" />
<circle cx="27.5" cy="22.516660498395403" r="0.22" fill="#423B38" />
<circle cx="28.5" cy="22.516660498395403" r="0.22" fill="#423B38" />
<circle cx="29.5" cy="22.516660498395403" r="0.22" fill="#423B38" />
<circle cx="30.5" cy="22.516660498395403" r="0.22" fill="#423B38" />
<circle cx="31.5" cy="22.516660498395403" r="0.22" fill="#423B38" />
<circle cx="32.5" cy="22.516660498395403" r="0.22" fill="#423B38" />
<circle cx="33.5" cy="22.516660498395403" r="0.22" fill="#423B38" />
<circle cx="34.5" cy="22.516660498395403" r="0.22" fill="#423B38" />
<circle cx="35.5" cy="22.516660498395403" r="0.22" fill="#423B38" />
<circle cx="36.5" cy="22.516660498395403" r="0.22" fill="#423B38" />
<circle cx="37.5" cy="22.516660498395403" r="0.22" fill="#423B38" />
<circle cx="39.5" cy="22.516660498395403" r="0.22" fill="#423B38" />
<circle cx="40.5" cy="22.516660498395403" r="0.22" fill="#423B38" />
<circle cx="41.5" cy="22.516660498395403" r="0.22" fill="#423B38" />
<circle cx="42.5" cy="22.516660498395403" r="0.22" fill="#423B38" />
<circle cx="60.5" cy="22.516660498395403" r="0.22" fill="#423B38" />
<circle cx="61.5" cy="22.516660498395403" r="0.22" fill="#423B38" />
<circle cx="62.5" cy="22.516660498395403" r="0.22" fill="#423B38" />
<circle cx="24" cy="23.38268590217984" r="0.22" fill="#423B38" />
<circle cx="25" cy="23.38268590217984" r="0.22" fill="#423B38" />
<circle cx="26" cy="23.38268590217984" r="0.22" fill="#423B38" />
<circle cx="27" cy="23.38268590217984" r="0.22" fill="#423B38" />
<circle cx="28" cy="23.38268590217984" r="0.22" fill="#423B38" />
<circle cx="29" cy="23.38268590217984" r="0.22" fill="#423B38" />
<circle cx="30" cy="23.38268590217984" r="0.22" fill="#423B38" />
<circle cx="31" cy="23.38268590217984" r="0.22" fill="#423B38" />
<circle cx="32" cy="23.38268590217984" r="0.22" fill="#423B38" />
<circle cx="33" cy="23.38268590217984" r="0.22" fill="#423B38" />
<circle cx="34" cy="23.38268590217984" r="0.22" fill="#423B38" />
<circle cx="35" cy="23.38268590217984" r="0.22" fill="#423B38" />
<circle cx="36" cy="23.38268590217984" r="0.22" fill="#423B38" />
<circle cx="37" cy="23.38268590217984" r="0.22" fill="#423B38" />
<circle cx="38" cy="23.38268590217984" r="0.22" fill="#423B38" />
<circle cx="39" cy="23.38268590217984" r="0.22" fill="#423B38" />
<circle cx="40" cy="23.38268590217984" r="0.22" fill="#423B38" />
<circle cx="41" cy="23.38268590217984" r="0.22" fill="#423B38" />
<circle cx="42" cy="23.38268590217984" r="0.22" fill="#423B38" />
<circle cx="43" cy="23.38268590217984" r="0.22" fill="#423B38" />
<circle cx="61" cy="23.38268590217984" r="0.22" fill="#423B38" />
<circle cx="62" cy="23.38268590217984" r="0.22" fill="#423B38" />
<circle cx="23.5" cy="24.24871130596428" r="0.22" fill="#423B38" />
<circle cx="24.5" cy="24.24871130596428" r="0.22" fill="#423B38" />
<circle cx="25.5" cy="24.24871130596428" r="0.22" fill="#423B38" />
<circle cx="26.5" cy="24.24871130596428" r="0.22" fill="#423B38" />
<circle cx="27.5" cy="24.24871130596428" r="0.22" fill="#423B38" />
<circle cx="28.5" cy="24.24871130596428" r="0.22" fill="#423B38" />
<circle cx="29.5" cy="24.24871130596428" r="0.22" fill="#423B38" />
<circle cx="30.5" cy="24.24871130596428" r="0.22" fill="#423B38" />
<circle cx="31.5" cy="24.24871130596428" r="0.22" fill="#423B38" />
<circle cx="32.5" cy="24.24871130596428" r="0.22" fill="#423B38" />
<circle cx="33.5" cy="24.24871130596428" r="0.22" fill="#423B38" />
<circle cx="34.5" cy="24.24871130596428" r="0.22" fill="#423B38" />
<circle cx="35.5" cy="24.24871130596428" r="0.22" fill="#423B38" />
<circle cx="36.5" cy="24.24871130596428" r="0.22" fill="#423B38" />
<circle cx="37.5" cy="24.24871130596428" r="0.22" fill="#423B38" />
<circle cx="38.5" cy="24.24871130596428" r="0.22" fill="#423B38" />
<circle cx="39.5" cy="24.24871130596428" r="0.22" fill="#423B38" />
<circle cx="40.5" cy="24.24871130596428" r="0.22" fill="#423B38" />
<circle cx="41.5" cy="24.24871130596428" r="0.22" fill="#423B38" />
<circle cx="42.5" cy="24.24871130596428" r="0.22" fill="#423B38" />
<circle cx="43.5" cy="24.24871130596428" r="0.22" fill="#423B38" />
<circle cx="44.5" cy="24.24871130596428" r="0.22" fill="#423B38" />
<circle cx="61.5" cy="24.24871130596428" r="0.22" fill="#423B38" />
<circle cx="62.5" cy="24.24871130596428" r="0.22" fill="#423B38" />
<circle cx="23" cy="25.11473670974872" r="0.22" fill="#423B38" />
<circle cx="24" cy="25.11473670974872" r="0.22" fill="#423B38" />
<circle cx="25" cy="25.11473670974872" r="0.22" fill="#423B38" />
<circle cx="26" cy="25.11473670974872" r="0.22" fill="#423B38" />
<circle cx="27" cy="25.11473670974872" r="0.22" fill="#423B38" />
<circle cx="28" cy="25.11473670974872" r="0.22" fill="#423B38" />
<circle cx="29" cy="25.11473670974872" r="0.22" fill="#423B38" />
<circle cx="30" cy="25.11473670974872" r="0.22" fill="#423B38" />
<circle cx="31" cy="25.11473670974872" r="0.22" fill="#423B38" />
<circle cx="32" cy="25.11473670974872" r="0.22" fill="#423B38" />
<circle cx="33" cy="25.11473670974872" r="0.22" fill="#423B38" />
<circle cx="34" cy="25.11473670974872" r="0.22" fill="#423B38" />
<circle cx="35" cy="25.11473670974872" r="0.22" fill="#423B38" />
<circle cx="36" cy="25.11473670974872" r="0.22" fill="#423B38" />
<circle cx="37" cy="25.11473670974872" r="0.22" fill="#423B38" />
<circle cx="38" cy="25.11473670974872" r="0.22" fill="#423B38" />
<circle cx="39" cy="25.11473670974872" r="0.22" fill="#423B38" />
<circle cx="40" cy="25.11473670974872" r="0.22" fill="#423B38" />
<circle cx="41" cy="25.11473670974872" r="0.22" fill="#423B38" />
<circle cx="42" cy="25.11473670974872" r="0.22" fill="#423B38" />
<circle cx="43" cy="25.11473670974872" r="0.22" fill="#423B38" />
<circle cx="62" cy="25.11473670974872" r="0.22" fill="#423B38" />
<circle cx="22.5" cy="25.980762113533157" r="0.22" fill="#423B38" />
<circle cx="23.5" cy="25.980762113533157" r="0.22" fill="#423B38" />
<circle cx="24.5" cy="25.980762113533157" r="0.22" fill="#423B38" />
<circle cx="25.5" cy="25.980762113533157" r="0.22" fill="#423B38" />
<circle cx="26.5" cy="25.980762113533157" r="0.22" fill="#423B38" />
<circle cx="27.5" cy="25.980762113533157" r="0.22" fill="#423B38" />
<circle cx="28.5" cy="25.980762113533157" r="0.22" fill="#423B38" />
<circle cx="29.5" cy="25.980762113533157" r="0.22" fill="#423B38" />
<circle cx="30.5" cy="25.980762113533157" r="0.22" fill="#423B38" />
<circle cx="31.5" cy="25.980762113533157" r="0.22" fill="#423B38" />
<circle cx="32.5" cy="25.980762113533157" r="0.22" fill="#423B38" />
<circle cx="33.5" cy="25.980762113533157" r="0.22" fill="#423B38" />
<circle cx="34.5" cy="25.980762113533157" r="0.22" fill="#423B38" />
<circle cx="35.5" cy="25.980762113533157" r="0.22" fill="#423B38" />
<circle cx="36.5" cy="25.980762113533157" r="0.22" fill="#423B38" />
<circle cx="37.5" cy="25.980762113533157" r="0.22" fill="#423B38" />
<circle cx="38.5" cy="25.980762113533157" r="0.22" fill="#423B38" />
<circle cx="39.5" cy="25.980762113533157" r="0.22" fill="#423B38" />
<circle cx="40.5" cy="25.980762113533157" r="0.22" fill="#423B38" />
<circle cx="41.5" cy="25.980762113533157" r="0.22" fill="#423B38" />
<circle cx="42.5" cy="25.980762113533157" r="0.22" fill="#423B38" />
<circle cx="62.5" cy="25.980762113533157" r="0.22" fill="#423B38" />
<circle cx="23" cy="26.846787517317598" r="0.22" fill="#423B38" />
<circle cx="24" cy="26.846787517317598" r="0.22" fill="#423B38" />
<circle cx="25" cy="26.846787517317598" r="0.22" fill="#423B38" />
<circle cx="26" cy="26.846787517317598" r="0.22" fill="#423B38" />
<circle cx="27" cy="26.846787517317598" r="0.22" fill="#423B38" />
<circle cx="28" cy="26.846787517317598" r="0.22" fill="#423B38" />
<circle cx="29" cy="26.846787517317598" r="0.22" fill="#423B38" />
<circle cx="30" cy="26.846787517317598" r="0.22" fill="#423B38" />
<circle cx="31" cy="26.846787517317598" r="0.22" fill="#423B38" />
<circle cx="32" cy="26.846787517317598" r="0.22" fill="#423B38" />
<circle cx="33" cy="26.846787517317598" r="0.22" fill="#423B38" />
<circle cx="34" cy="26.846787517317598" r="0.22" fill="#423B38" />
<circle cx="35" cy="26.846787517317598" r="0.22" fill="#423B38" />
<circle cx="36" cy="26.846787517317598" r="0.22" fill="#423B38" />
<circle cx="37" cy="26.846787517317598" r="0.22" fill="#423B38" />
<circle cx="38" cy="26.846787517317598" r="0.22" fill="#423B38" />
<circle cx="39" cy="26.846787517317598" r="0.22" fill="#423B38" />
<circle cx="40" cy="26.846787517317598" r="0.22" fill="#423B38" />
<circle cx="41" cy="26.846787517317598" r="0.22" fill="#423B38" />
<circle cx="42" cy="26.846787517317598" r="0.22" fill="#423B38" />
<circle cx="22.5" cy="27.712812921102035" r="0.22" fill="#423B38" />
<circle cx="23.5" cy="27.712812921102035" r="0.22" fill="#423B38" />
<circle cx="24.5" cy="27.712812921102035" r="0.22" fill="#423B38" />
<circle cx="25.5" cy="27.712812921102035" r="0.22" fill="#423B38" />
<circle cx="26.5" cy="27.712812921102035" r="0.22" fill="#423B38" />
<circle cx="27.5" cy="27.712812921102035" r="0.22" fill="#423B38" />
<circle cx="28.5" cy="27.712812921102035" r="0.22" fill="#423B38" />
<circle cx="29.5" cy="27.712812921102035" r="0.22" fill="#423B38" />
<circle cx="30.5" cy="27.712812921102035" r="0.22" fill="#423B38" />
<circle cx="31.5" cy="27.712812921102035" r="0.22" fill="#423B38" />
<circle cx="32.5" cy="27.712812921102035" r="0.22" fill="#423B38" />
<circle cx="33.5" cy="27.712812921102035" r="0.22" fill="#423B38" />
<circle cx="34.5" cy="27.712812921102035" r="0.22" fill="#423B38" />
<circle cx="35.5" cy="27.712812921102035" r="0.22" fill="#423B38" />
<circle cx="36.5" cy="27.712812921102035" r="0.22" fill="#423B38" />
<circle cx="37.5" cy="27.712812921102035" r="0.22" fill="#423B38" />
<circle cx="38.5" cy="27.712812921102035" r="0.22" fill="#423B38" />
<circle cx="39.5" cy="27.712812921102035" r="0.22" fill="#423B38" />
<circle cx="40.5" cy="27.712812921102035" r="0.22" fill="#423B38" />
<circle cx="41.5" cy="27.712812921102035" r="0.22" fill="#423B38" />
<circle cx="42.5" cy="27.712812921102035" r="0.22" fill="#423B38" />
<circle cx="22" cy="28.578838324886473" r="0.22" fill="#423B38" />
<circle cx="23" cy="28.578838324886473" r="0.22" fill="#423B38" />
<circle cx="24" cy="28.578838324886473" r="0.22" fill="#423B38" />
<circle cx="25" cy="28.578838324886473" r="0.22" fill="#423B38" />
<circle cx="26" cy="28.578838324886473" r="0.22" fill="#423B38" />
<circle cx="27" cy="28.578838324886473" r="0.22" fill="#423B38" />
<circle cx="28" cy="28.578838324886473" r="0.22" fill="#423B38" />
<circle cx="29" cy="28.578838324886473" r="0.22" fill="#423B38" />
<circle cx="30" cy="28.578838324886473" r="0.22" fill="#423B38" />
<circle cx="31" cy="28.578838324886473" r="0.22" fill="#423B38" />
<circle cx="32" cy="28.578838324886473" r="0.22" fill="#423B38" />
<circle cx="33" cy="28.578838324886473" r="0.22" fill="#423B38" />
<circle cx="34" cy="28.578838324886473" r="0.22" fill="#423B38" />
<circle cx="35" cy="28.578838324886473" r="0.22" fill="#423B38" />
<circle cx="36" cy="28.578838324886473" r="0.22" fill="#423B38" />
<circle cx="37" cy="28.578838324886473" r="0.22" fill="#423B38" />
<circle cx="38" cy="28.578838324886473" r="0.22" fill="#423B38" />
<circle cx="39" cy="28.578838324886473" r="0.22" fill="#423B38" />
<circle cx="40" cy="28.578838324886473" r="0.22" fill="#423B38" />
<circle cx="41" cy="28.578838324886473" r="0.22" fill="#423B38" />
<circle cx="42" cy="28.578838324886473" r="0.22" fill="#423B38" />
<circle cx="22.5" cy="29.444863728670914" r="0.22" fill="#423B38" />
<circle cx="23.5" cy="29.444863728670914" r="0.22" fill="#423B38" />
<circle cx="24.5" cy="29.444863728670914" r="0.22" fill="#423B38" />
<circle cx="25.5" cy="29.444863728670914" r="0.22" fill="#423B38" />
<circle cx="26.5" cy="29.444863728670914" r="0.22" fill="#423B38" />
<circle cx="27.5" cy="29.444863728670914" r="0.22" fill="#423B38" />
<circle cx="28.5" cy="29.444863728670914" r="0.22" fill="#423B38" />
<circle cx="29.5" cy="29.444863728670914" r="0.22" fill="#423B38" />
<circle cx="30.5" cy="29.444863728670914" r="0.22" fill="#423B38" />
<circle cx="31.5" cy="29.444863728670914" r="0.22" fill="#423B38" />
<circle cx="32.5" cy="29.444863728670914" r="0.22" fill="#423B38" />
<circle cx="33.5" cy="29.444863728670914" r="0.22" fill="#423B38" />
<circle cx="34.5" cy="29.444863728670914" r="0.22" fill="#423B38" />
<circle cx="35.5" cy="29.444863728670914" r="0.22" fill="#423B38" />
<circle cx="36.5" cy="29.444863728670914" r="0.22" fill="#423B38" />
<circle cx="37.5" cy="29.444863728670914" r="0.22" fill="#423B38" />
<circle cx="38.5" cy="29.444863728670914" r="0.22" fill="#423B38" />
<circle cx="39.5" cy="29.444863728670914" r="0.22" fill="#423B38" />
<circle cx="40.5" cy="29.444863728670914" r="0.22" fill="#423B38" />
<circle cx="41.5" cy="29.444863728670914" r="0.22" fill="#423B38" />
<circle cx="22" cy="30.31088913245535" r="0.22" fill="#423B38" />
<circle cx="23" cy="30.31088913245535" r="0.22" fill="#423B38" />
<circle cx="24" cy="30.31088913245535" r="0.22" fill="#423B38" />
<circle cx="25" cy="30.31088913245535" r="0.22" fill="#423B38" />
<circle cx="26" cy="30.31088913245535" r="0.22" fill="#423B38" />
<circle cx="27" cy="30.31088913245535" r="0.22" fill="#423B38" />
<circle cx="28" cy="30.31088913245535" r="0.22" fill="#423B38" />
<circle cx="29" cy="30.31088913245535" r="0.22" fill="#423B38" />
<circle cx="30" cy="30.31088913245535" r="0.22" fill="#423B38" />
<circle cx="31" cy="30.31088913245535" r="0.22" fill="#423B38" />
<circle cx="32" cy="30.31088913245535" r="0.22" fill="#423B38" />
<circle cx="33" cy="30.31088913245535" r="0.22" fill="#423B38" />
<circle cx="34" cy="30.31088913245535" r="0.22" fill="#423B38" />
<circle cx="35" cy="30.31088913245535" r="0.22" fill="#423B38" />
<circle cx="36" cy="30.31088913245535" r="0.22" fill="#423B38" />
<circle cx="37" cy="30.31088913245535" r="0.22" fill="#423B38" />
<circle cx="38" cy="30.31088913245535" r="0.22" fill="#423B38" />
<circle cx="39" cy="30.31088913245535" r="0.22" fill="#423B38" />
<circle cx="40" cy="30.31088913245535" r="0.22" fill="#423B38" />
<circle cx="41" cy="30.31088913245535" r="0.22" fill="#423B38" />
<circle cx="22.5" cy="31.17691453623979" r="0.22" fill="#423B38" />
<circle cx="23.5" cy="31.17691453623979" r="0.22" fill="#423B38" />
<circle cx="24.5" cy="31.17691453623979" r="0.22" fill="#423B38" />
<circle cx="25.5" cy="31.17691453623979" r="0.22" fill="#423B38" />
<circle cx="26.5" cy="31.17691453623979" r="0.22" fill="#423B38" />
<circle cx="27.5" cy="31.17691453623979" r="0.22" fill="#423B38" />
<circle cx="28.5" cy="31.17691453623979" r="0.22" fill="#423B38" />
<circle cx="29.5" cy="31.17691453623979" r="0.22" fill="#423B38" />
<circle cx="30.5" cy="31.17691453623979" r="0.22" fill="#423B38" />
<circle cx="31.5" cy="31.17691453623979" r="0.22" fill="#423B38" />
<circle cx="32.5" cy="31.17691453623979" r="0.22" fill="#423B38" />
<circle cx="33.5" cy="31.17691453623979" r="0.22" fill="#423B38" />
<circle cx="34.5" cy="31.17691453623979" r="0.22" fill="#423B38" />
<circle cx="35.5" cy="31.17691453623979" r="0.22" fill="#423B38" />
<circle cx="36.5" cy="31.17691453623979" r="0.22" fill="#423B38" />
<circle cx="37.5" cy="31.17691453623979" r="0.22" fill="#423B38" />
<circle cx="38.5" cy="31.17691453623979" r="0.22" fill="#423B38" />
<circle cx="39.5" cy="31.17691453623979" r="0.22" fill="#423B38" />
<circle cx="40.5" cy="31.17691453623979" r="0.22" fill="#423B38" />
<circle cx="41.5" cy="31.17691453623979" r="0.22" fill="#423B38" />
<circle cx="23" cy="32.042939940024226" r="0.22" fill="#423B38" />
<circle cx="24" cy="32.042939940024226" r="0.22" fill="#423B38" />
<circle cx="25" cy="32.042939940024226" r="0.22" fill="#423B38" />
<circle cx="26" cy="32.042939940024226" r="0.22" fill="#423B38" />
<circle cx="27" cy="32.042939940024226" r="0.22" fill="#423B38" />
<circle cx="28" cy="32.042939940024226" r="0.22" fill="#423B38" />
<circle cx="29" cy="32.042939940024226" r="0.22" fill="#423B38" />
<circle cx="30" cy="32.042939940024226" r="0.22" fill="#423B38" />
<circle cx="31" cy="32.042939940024226" r="0.22" fill="#423B38" />
<circle cx="32" cy="32.042939940024226" r="0.22" fill="#423B38" />
<circle cx="33" cy="32.042939940024226" r="0.22" fill="#423B38" />
<circle cx="34" cy="32.042939940024226" r="0.22" fill="#423B38" />
<circle cx="35" cy="32.042939940024226" r="0.22" fill="#423B38" />
<circle cx="36" cy="32.042939940024226" r="0.22" fill="#423B38" />
<circle cx="37" cy="32.042939940024226" r="0.22" fill="#423B38" />
<circle cx="38" cy="32.042939940024226" r="0.22" fill="#423B38" />
<circle cx="39" cy="32.042939940024226" r="0.22" fill="#423B38" />
<circle cx="40" cy="32.042939940024226" r="0.22" fill="#423B38" />
<circle cx="41" cy="32.042939940024226" r="0.22" fill="#423B38" />
<circle cx="24.5" cy="32.90896534380867" r="0.22" fill="#423B38" />
<circle cx="25.5" cy="32.90896534380867" r="0.22" fill="#423B38" />
<circle cx="26.5" cy="32.90896534380867" r="0.22" fill="#423B38" />
<circle cx="27.5" cy="32.90896534380867" r="0.22" fill="#423B38" />
<circle cx="28.5" cy="32.90896534380867" r="0.22" fill="#423B38" />
<circle cx="29.5" cy="32.90896534380867" r="0.22" fill="#423B38" />
<circle cx="30.5" cy="32.90896534380867" r="0.22" fill="#423B38" />
<circle cx="31.5" cy="32.90896534380867" r="0.22" fill="#423B38" />
<circle cx="32.5" cy="32.90896534380867" r="0.22" fill="#423B38" />
<circle cx="33.5" cy="32.90896534380867" r="0.22" fill="#423B38" />
<circle cx="34.5" cy="32.90896534380867" r="0.22" fill="#423B38" />
<circle cx="35.5" cy="32.90896534380867" r="0.22" fill="#423B38" />
<circle cx="36.5" cy="32.90896534380867" r="0.22" fill="#423B38" />
<circle cx="37.5" cy="32.90896534380867" r="0.22" fill="#423B38" />
<circle cx="38.5" cy="32.90896534380867" r="0.22" fill="#423B38" />
<circle cx="39.5" cy="32.90896534380867" r="0.22" fill="#423B38" />
<circle cx="40.5" cy="32.90896534380867" r="0.22" fill="#423B38" />
<circle cx="24" cy="33.77499074759311" r="0.22" fill="#423B38" />
<circle cx="25" cy="33.77499074759311" r="0.22" fill="#423B38" />
<circle cx="26" cy="33.77499074759311" r="0.22" fill="#423B38" />
<circle cx="27" cy="33.77499074759311" r="0.22" fill="#423B38" />
<circle cx="28" cy="33.77499074759311" r="0.22" fill="#423B38" />
<circle cx="29" cy="33.77499074759311" r="0.22" fill="#423B38" />
<circle cx="30" cy="33.77499074759311" r="0.22" fill="#423B38" />
<circle cx="31" cy="33.77499074759311" r="0.22" fill="#423B38" />
<circle cx="32" cy="33.77499074759311" r="0.22" fill="#423B38" />
<circle cx="33" cy="33.77499074759311" r="0.22" fill="#423B38" />
<circle cx="34" cy="33.77499074759311" r="0.22" fill="#423B38" />
<circle cx="35" cy="33.77499074759311" r="0.22" fill="#423B38" />
<circle cx="36" cy="33.77499074759311" r="0.22" fill="#423B38" />
<circle cx="37" cy="33.77499074759311" r="0.22" fill="#423B38" />
<circle cx="38" cy="33.77499074759311" r="0.22" fill="#423B38" />
<circle cx="39" cy="33.77499074759311" r="0.22" fill="#423B38" />
<circle cx="40" cy="33.77499074759311" r="0.22" fill="#423B38" />
<circle cx="24.5" cy="34.64101615137754" r="0.22" fill="#423B38" />
<circle cx="25.5" cy="34.64101615137754" r="0.22" fill="#423B38" />
<circle cx="26.5" cy="34.64101615137754" r="0.22" fill="#423B38" />
<circle cx="27.5" cy="34.64101615137754" r="0.22" fill="#423B38" />
<circle cx="28.5" cy="34.64101615137754" r="0.22" fill="#423B38" />
<circle cx="29.5" cy="34.64101615137754" r="0.22" fill="#423B38" />
<circle cx="30.5" cy="34.64101615137754" r="0.22" fill="#423B38" />
<circle cx="31.5" cy="34.64101615137754" r="0.22" fill="#423B38" />
<circle cx="32.5" cy="34.64101615137754" r="0.22" fill="#423B38" />
<circle cx="33.5" cy="34.64101615137754" r="0.22" fill="#423B38" />
<circle cx="34.5" cy="34.64101615137754" r="0.22" fill="#423B38" />
<circle cx="35.5" cy="34.64101615137754" r="0.22" fill="#423B38" />
<circle cx="36.5" cy="34.64101615137754" r="0.22" fill="#423B38" />
<circle cx="37.5" cy="34.64101615137754" r="0.22" fill="#423B38" />
<circle cx="38.5" cy="34.64101615137754" r="0.22" fill="#423B38" />
<circle cx="39.5" cy="34.64101615137754" r="0.22" fill="#423B38" />
<circle cx="25" cy="35.50704155516198" r="0.22" fill="#423B38" />
<circle cx="26" cy="35.50704155516198" r="0.22" fill="#423B38" />
<circle cx="27" cy="35.50704155516198" r="0.22" fill="#423B38" />
<circle cx="28" cy="35.50704155516198" r="0.22" fill="#423B38" />
<circle cx="29" cy="35.50704155516198" r="0.22" fill="#423B38" />
<circle cx="30" cy="35.50704155516198" r="0.22" fill="#423B38" />
<circle cx="31" cy="35.50704155516198" r="0.22" fill="#423B38" />
<circle cx="32" cy="35.50704155516198" r="0.22" fill="#423B38" />
<circle cx="33" cy="35.50704155516198" r="0.22" fill="#423B38" />
<circle cx="34" cy="35.50704155516198" r="0.22" fill="#423B38" />
<circle cx="36" cy="35.50704155516198" r="0.22" fill="#423B38" />
<circle cx="40" cy="35.50704155516198" r="0.22" fill="#423B38" />
<circle cx="24.5" cy="36.373066958946424" r="0.22" fill="#423B38" />
<circle cx="26.5" cy="36.373066958946424" r="0.22" fill="#423B38" />
<circle cx="27.5" cy="36.373066958946424" r="0.22" fill="#423B38" />
<circle cx="28.5" cy="36.373066958946424" r="0.22" fill="#423B38" />
<circle cx="29.5" cy="36.373066958946424" r="0.22" fill="#423B38" />
<circle cx="30.5" cy="36.373066958946424" r="0.22" fill="#423B38" />
<circle cx="31.5" cy="36.373066958946424" r="0.22" fill="#423B38" />
<circle cx="32.5" cy="36.373066958946424" r="0.22" fill="#423B38" />
<circle cx="40.5" cy="36.373066958946424" r="0.22" fill="#423B38" />
<circle cx="27" cy="37.23909236273086" r="0.22" fill="#423B38" />
<circle cx="28" cy="37.23909236273086" r="0.22" fill="#423B38" />
<circle cx="29" cy="37.23909236273086" r="0.22" fill="#423B38" />
<circle cx="30" cy="37.23909236273086" r="0.22" fill="#423B38" />
<circle cx="31" cy="37.23909236273086" r="0.22" fill="#423B38" />
<circle cx="32" cy="37.23909236273086" r="0.22" fill="#423B38" />
<circle cx="28.5" cy="38.1051177665153" r="0.22" fill="#423B38" />
<circle cx="29.5" cy="38.1051177665153" r="0.22" fill="#423B38" />
<circle cx="30.5" cy="38.1051177665153" r="0.22" fill="#423B38" />
<circle cx="31.5" cy="38.1051177665153" r="0.22" fill="#423B38" />
<circle cx="32.5" cy="38.1051177665153" r="0.22" fill="#423B38" />
<circle cx="29" cy="38.97114317029974" r="0.22" fill="#423B38" />
<circle cx="30" cy="38.97114317029974" r="0.22" fill="#423B38" />
<circle cx="31" cy="38.97114317029974" r="0.22" fill="#423B38" />
<circle cx="32" cy="38.97114317029974" r="0.22" fill="#423B38" />
<circle cx="43" cy="38.97114317029974" r="0.22" fill="#423B38" />
<circle cx="44" cy="38.97114317029974" r="0.22" fill="#423B38" />
<circle cx="46" cy="38.97114317029974" r="0.22" fill="#423B38" />
<circle cx="29.5" cy="39.837168574084174" r="0.22" fill="#423B38" />
<circle cx="30.5" cy="39.837168574084174" r="0.22" fill="#423B38" />
<circle cx="31.5" cy="39.837168574084174" r="0.22" fill="#423B38" />
<circle cx="32.5" cy="39.837168574084174" r="0.22" fill="#423B38" />
<circle cx="37.5" cy="39.837168574084174" r="0.22" fill="#423B38" />
<circle cx="29" cy="40.703193977868615" r="0.22" fill="#423B38" />
<circle cx="30" cy="40.703193977868615" r="0.22" fill="#423B38" />
<circle cx="31" cy="40.703193977868615" r="0.22" fill="#423B38" />
<circle cx="32" cy="40.703193977868615" r="0.22" fill="#423B38" />
<circle cx="33" cy="40.703193977868615" r="0.22" fill="#423B38" />
<circle cx="37" cy="40.703193977868615" r="0.22" fill="#423B38" />
<circle cx="30.5" cy="41.569219381653056" r="0.22" fill="#423B38" />
<circle cx="31.5" cy="41.569219381653056" r="0.22" fill="#423B38" />
<circle cx="32.5" cy="41.569219381653056" r="0.22" fill="#423B38" />
<circle cx="33.5" cy="41.569219381653056" r="0.22" fill="#423B38" />
<circle cx="34.5" cy="41.569219381653056" r="0.22" fill="#423B38" />
<circle cx="35.5" cy="41.569219381653056" r="0.22" fill="#423B38" />
<circle cx="36.5" cy="41.569219381653056" r="0.22" fill="#423B38" />
<circle cx="37.5" cy="41.569219381653056" r="0.22" fill="#423B38" />
<circle cx="54.5" cy="41.569219381653056" r="0.22" fill="#423B38" />
<circle cx="59.5" cy="41.569219381653056" r="0.22" fill="#423B38" />
<circle cx="32" cy="42.43524478543749" r="0.22" fill="#423B38" />
<circle cx="33" cy="42.43524478543749" r="0.22" fill="#423B38" />
<circle cx="34" cy="42.43524478543749" r="0.22" fill="#423B38" />
<circle cx="35" cy="42.43524478543749" r="0.22" fill="#423B38" />
<circle cx="36" cy="42.43524478543749" r="0.22" fill="#423B38" />
<circle cx="37" cy="42.43524478543749" r="0.22" fill="#423B38" />
<circle cx="38" cy="42.43524478543749" r="0.22" fill="#423B38" />
<circle cx="39" cy="42.43524478543749" r="0.22" fill="#423B38" />
<circle cx="40" cy="42.43524478543749" r="0.22" fill="#423B38" />
<circle cx="46" cy="42.43524478543749" r="0.22" fill="#423B38" />
<circle cx="47" cy="42.43524478543749" r="0.22" fill="#423B38" />
<circle cx="48" cy="42.43524478543749" r="0.22" fill="#423B38" />
<circle cx="49" cy="42.43524478543749" r="0.22" fill="#423B38" />
<circle cx="50" cy="42.43524478543749" r="0.22" fill="#423B38" />
<circle cx="51" cy="42.43524478543749" r="0.22" fill="#423B38" />
<circle cx="52" cy="42.43524478543749" r="0.22" fill="#423B38" />
<circle cx="53" cy="42.43524478543749" r="0.22" fill="#423B38" />
<circle cx="54" cy="42.43524478543749" r="0.22" fill="#423B38" />
<circle cx="55" cy="42.43524478543749" r="0.22" fill="#423B38" />
<circle cx="57" cy="42.43524478543749" r="0.22" fill="#423B38" />
<circle cx="58" cy="42.43524478543749" r="0.22" fill="#423B38" />
<circle cx="59" cy="42.43524478543749" r="0.22" fill="#423B38" />
<circle cx="36.5" cy="43.30127018922193" r="0.22" fill="#423B38" />
<circle cx="37.5" cy="43.30127018922193" r="0.22" fill="#423B38" />
<circle cx="38.5" cy="43.30127018922193" r="0.22" fill="#423B38" />
<circle cx="39.5" cy="43.30127018922193" r="0.22" fill="#423B38" />
<circle cx="45.5" cy="43.30127018922193" r="0.22" fill="#423B38" />
<circle cx="47.5" cy="43.30127018922193" r="0.22" fill="#423B38" />
<circle cx="48.5" cy="43.30127018922193" r="0.22" fill="#423B38" />
<circle cx="49.5" cy="43.30127018922193" r="0.22" fill="#423B38" />
<circle cx="50.5" cy="43.30127018922193" r="0.22" fill="#423B38" />
<circle cx="51.5" cy="43.30127018922193" r="0.22" fill="#423B38" />
<circle cx="52.5" cy="43.30127018922193" r="0.22" fill="#423B38" />
<circle cx="53.5" cy="43.30127018922193" r="0.22" fill="#423B38" />
<circle cx="54.5" cy="43.30127018922193" r="0.22" fill="#423B38" />
<circle cx="55.5" cy="43.30127018922193" r="0.22" fill="#423B38" />
<circle cx="56.5" cy="43.30127018922193" r="0.22" fill="#423B38" />
<circle cx="57.5" cy="43.30127018922193" r="0.22" fill="#423B38" />
<circle cx="58.5" cy="43.30127018922193" r="0.22" fill="#423B38" />
<circle cx="39" cy="44.167295593006365" r="0.22" fill="#423B38" />
<circle cx="40" cy="44.167295593006365" r="0.22" fill="#423B38" />
<circle cx="45" cy="44.167295593006365" r="0.22" fill="#423B38" />
<circle cx="46" cy="44.167295593006365" r="0.22" fill="#423B38" />
<circle cx="47" cy="44.167295593006365" r="0.22" fill="#423B38" />
<circle cx="48" cy="44.167295593006365" r="0.22" fill="#423B38" />
<circle cx="49" cy="44.167295593006365" r="0.22" fill="#423B38" />
<circle cx="50" cy="44.167295593006365" r="0.22" fill="#423B38" />
<circle cx="51" cy="44.167295593006365" r="0.22" fill="#423B38" />
<circle cx="52" cy="44.167295593006365" r="0.22" fill="#423B38" />
<circle cx="53" cy="44.167295593006365" r="0.22" fill="#423B38" />
<circle cx="54" cy="44.167295593006365" r="0.22" fill="#423B38" />
<circle cx="55" cy="44.167295593006365" r="0.22" fill="#423B38" />
<circle cx="56" cy="44.167295593006365" r="0.22" fill="#423B38" />
<circle cx="57" cy="44.167295593006365" r="0.22" fill="#423B38" />
<circle cx="58" cy="44.167295593006365" r="0.22" fill="#423B38" />
<circle cx="39.5" cy="45.033320996790806" r="0.22" fill="#423B38" />
<circle cx="40.5" cy="45.033320996790806" r="0.22" fill="#423B38" />
<circle cx="43.5" cy="45.033320996790806" r="0.22" fill="#423B38" />
<circle cx="44.5" cy="45.033320996790806" r="0.22" fill="#423B38" />
<circle cx="45.5" cy="45.033320996790806" r="0.22" fill="#423B38" />
<circle cx="46.5" cy="45.033320996790806" r="0.22" fill="#423B38" />
<circle cx="47.5" cy="45.033320996790806" r="0.22" fill="#423B38" />
<circle cx="48.5" cy="45.033320996790806" r="0.22" fill="#423B38" />
<circle cx="49.5" cy="45.033320996790806" r="0.22" fill="#423B38" />
<circle cx="50.5" cy="45.033320996790806" r="0.22" fill="#423B38" />
<circle cx="51.5" cy="45.033320996790806" r="0.22" fill="#423B38" />
<circle cx="52.5" cy="45.033320996790806" r="0.22" fill="#423B38" />
<circle cx="53.5" cy="45.033320996790806" r="0.22" fill="#423B38" />
<circle cx="54.5" cy="45.033320996790806" r="0.22" fill="#423B38" />
<circle cx="55.5" cy="45.033320996790806" r="0.22" fill="#423B38" />
<circle cx="56.5" cy="45.033320996790806" r="0.22" fill="#423B38" />
<circle cx="57.5" cy="45.033320996790806" r="0.22" fill="#423B38" />
<circle cx="44" cy="45.89934640057525" r="0.22" fill="#423B38" />
<circle cx="45" cy="45.89934640057525" r="0.22" fill="#423B38" />
<circle cx="46" cy="45.89934640057525" r="0.22" fill="#423B38" />
<circle cx="47" cy="45.89934640057525" r="0.22" fill="#423B38" />
<circle cx="48" cy="45.89934640057525" r="0.22" fill="#423B38" />
<circle cx="49" cy="45.89934640057525" r="0.22" fill="#423B38" />
<circle cx="50" cy="45.89934640057525" r="0.22" fill="#423B38" />
<circle cx="51" cy="45.89934640057525" r="0.22" fill="#423B38" />
<circle cx="52" cy="45.89934640057525" r="0.22" fill="#423B38" />
<circle cx="53" cy="45.89934640057525" r="0.22" fill="#423B38" />
<circle cx="54" cy="45.89934640057525" r="0.22" fill="#423B38" />
<circle cx="55" cy="45.89934640057525" r="0.22" fill="#423B38" />
<circle cx="56" cy="45.89934640057525" r="0.22" fill="#423B38" />
<circle cx="57" cy="45.89934640057525" r="0.22" fill="#423B38" />
<circle cx="58" cy="45.89934640057525" r="0.22" fill="#423B38" />
<circle cx="44.5" cy="46.76537180435968" r="0.22" fill="#423B38" />
<circle cx="45.5" cy="46.76537180435968" r="0.22" fill="#423B38" />
<circle cx="46.5" cy="46.76537180435968" r="0.22" fill="#423B38" />
<circle cx="47.5" cy="46.76537180435968" r="0.22" fill="#423B38" />
<circle cx="48.5" cy="46.76537180435968" r="0.22" fill="#423B38" />
<circle cx="49.5" cy="46.76537180435968" r="0.22" fill="#423B38" />
<circle cx="50.5" cy="46.76537180435968" r="0.22" fill="#423B38" />
<circle cx="51.5" cy="46.76537180435968" r="0.22" fill="#423B38" />
<circle cx="52.5" cy="46.76537180435968" r="0.22" fill="#423B38" />
<circle cx="53.5" cy="46.76537180435968" r="0.22" fill="#423B38" />
<circle cx="54.5" cy="46.76537180435968" r="0.22" fill="#423B38" />
<circle cx="55.5" cy="46.76537180435968" r="0.22" fill="#423B38" />
<circle cx="56.5" cy="46.76537180435968" r="0.22" fill="#423B38" />
<circle cx="57.5" cy="46.76537180435968" r="0.22" fill="#423B38" />
<circle cx="44" cy="47.63139720814412" r="0.22" fill="#423B38" />
<circle cx="45" cy="47.63139720814412" r="0.22" fill="#423B38" />
<circle cx="46" cy="47.63139720814412" r="0.22" fill="#423B38" />
<circle cx="47" cy="47.63139720814412" r="0.22" fill="#423B38" />
<circle cx="48" cy="47.63139720814412" r="0.22" fill="#423B38" />
<circle cx="49" cy="47.63139720814412" r="0.22" fill="#423B38" />
<circle cx="50" cy="47.63139720814412" r="0.22" fill="#423B38" />
<circle cx="51" cy="47.63139720814412" r="0.22" fill="#423B38" />
<circle cx="52" cy="47.63139720814412" r="0.22" fill="#423B38" />
<circle cx="53" cy="47.63139720814412" r="0.22" fill="#423B38" />
<circle cx="54" cy="47.63139720814412" r="0.22" fill="#423B38" />
<circle cx="55" cy="47.63139720814412" r="0.22" fill="#423B38" />
<circle cx="56" cy="47.63139720814412" r="0.22" fill="#423B38" />
<circle cx="57" cy="47.63139720814412" r="0.22" fill="#423B38" />
<circle cx="43.5" cy="48.49742261192856" r="0.22" fill="#423B38" />
<circle cx="44.5" cy="48.49742261192856" r="0.22" fill="#423B38" />
<circle cx="45.5" cy="48.49742261192856" r="0.22" fill="#423B38" />
<circle cx="46.5" cy="48.49742261192856" r="0.22" fill="#423B38" />
<circle cx="47.5" cy="48.49742261192856" r="0.22" fill="#423B38" />
<circle cx="48.5" cy="48.49742261192856" r="0.22" fill="#423B38" />
<circle cx="49.5" cy="48.49742261192856" r="0.22" fill="#423B38" />
<circle cx="50.5" cy="48.49742261192856" r="0.22" fill="#423B38" />
<circle cx="51.5" cy="48.49742261192856" r="0.22" fill="#423B38" />
<circle cx="52.5" cy="48.49742261192856" r="0.22" fill="#423B38" />
<circle cx="53.5" cy="48.49742261192856" r="0.22" fill="#423B38" />
<circle cx="54.5" cy="48.49742261192856" r="0.22" fill="#423B38" />
<circle cx="55.5" cy="48.49742261192856" r="0.22" fill="#423B38" />
<circle cx="56.5" cy="48.49742261192856" r="0.22" fill="#423B38" />
<circle cx="43" cy="49.363448015713" r="0.22" fill="#423B38" />
<circle cx="44" cy="49.363448015713" r="0.22" fill="#423B38" />
<circle cx="45" cy="49.363448015713" r="0.22" fill="#423B38" />
<circle cx="46" cy="49.363448015713" r="0.22" fill="#423B38" />
<circle cx="47" cy="49.363448015713" r="0.22" fill="#423B38" />
<circle cx="48" cy="49.363448015713" r="0.22" fill="#423B38" />
<circle cx="49" cy="49.363448015713" r="0.22" fill="#423B38" />
<circle cx="50" cy="49.363448015713" r="0.22" fill="#423B38" />
<circle cx="51" cy="49.363448015713" r="0.22" fill="#423B38" />
<circle cx="52" cy="49.363448015713" r="0.22" fill="#423B38" />
<circle cx="53" cy="49.363448015713" r="0.22" fill="#423B38" />
<circle cx="54" cy="49.363448015713" r="0.22" fill="#423B38" />
<circle cx="55" cy="49.363448015713" r="0.22" fill="#423B38" />
<circle cx="56" cy="49.363448015713" r="0.22" fill="#423B38" />
<circle cx="42.5" cy="50.22947341949744" r="0.22" fill="#423B38" />
<circle cx="43.5" cy="50.22947341949744" r="0.22" fill="#423B38" />
<circle cx="44.5" cy="50.22947341949744" r="0.22" fill="#423B38" />
<circle cx="45.5" cy="50.22947341949744" r="0.22" fill="#423B38" />
<circle cx="46.5" cy="50.22947341949744" r="0.22" fill="#423B38" />
<circle cx="47.5" cy="50.22947341949744" r="0.22" fill="#423B38" />
<circle cx="48.5" cy="50.22947341949744" r="0.22" fill="#423B38" />
<circle cx="49.5" cy="50.22947341949744" r="0.22" fill="#423B38" />
<circle cx="50.5" cy="50.22947341949744" r="0.22" fill="#423B38" />
<circle cx="51.5" cy="50.22947341949744" r="0.22" fill="#423B38" />
<circle cx="52.5" cy="50.22947341949744" r="0.22" fill="#423B38" />
<circle cx="53.5" cy="50.22947341949744" r="0.22" fill="#423B38" />
<circle cx="54.5" cy="50.22947341949744" r="0.22" fill="#423B38" />
<circle cx="42" cy="51.09549882328188" r="0.22" fill="#423B38" />
<circle cx="43" cy="51.09549882328188" r="0.22" fill="#423B38" />
<circle cx="44" cy="51.09549882328188" r="0.22" fill="#423B38" />
<circle cx="45" cy="51.09549882328188" r="0.22" fill="#423B38" />
<circle cx="46" cy="51.09549882328188" r="0.22" fill="#423B38" />
<circle cx="47" cy="51.09549882328188" r="0.22" fill="#423B38" />
<circle cx="48" cy="51.09549882328188" r="0.22" fill="#423B38" />
<circle cx="49" cy="51.09549882328188" r="0.22" fill="#423B38" />
<circle cx="50" cy="51.09549882328188" r="0.22" fill="#423B38" />
<circle cx="51" cy="51.09549882328188" r="0.22" fill="#423B38" />
<circle cx="52" cy="51.09549882328188" r="0.22" fill="#423B38" />
<circle cx="53" cy="51.09549882328188" r="0.22" fill="#423B38" />
<circle cx="54" cy="51.09549882328188" r="0.22" fill="#423B38" />
<circle cx="42.5" cy="51.96152422706631" r="0.22" fill="#423B38" />
<circle cx="43.5" cy="51.96152422706631" r="0.22" fill="#423B38" />
<circle cx="44.5" cy="51.96152422706631" r="0.22" fill="#423B38" />
<circle cx="45.5" cy="51.96152422706631" r="0.22" fill="#423B38" />
<circle cx="46.5" cy="51.96152422706631" r="0.22" fill="#423B38" />
<circle cx="47.5" cy="51.96152422706631" r="0.22" fill="#423B38" />
<circle cx="48.5" cy="51.96152422706631" r="0.22" fill="#423B38" />
<circle cx="49.5" cy="51.96152422706631" r="0.22" fill="#423B38" />
<circle cx="50.5" cy="51.96152422706631" r="0.22" fill="#423B38" />
<circle cx="51.5" cy="51.96152422706631" r="0.22" fill="#423B38" />
<circle cx="52.5" cy="51.96152422706631" r="0.22" fill="#423B38" />
<circle cx="53.5" cy="51.96152422706631" r="0.22" fill="#423B38" />
<circle cx="44" cy="52.827549630850754" r="0.22" fill="#423B38" />
<circle cx="45" cy="52.827549630850754" r="0.22" fill="#423B38" />
<circle cx="46" cy="52.827549630850754" r="0.22" fill="#423B38" />
<circle cx="47" cy="52.827549630850754" r="0.22" fill="#423B38" />
<circle cx="48" cy="52.827549630850754" r="0.22" fill="#423B38" />
<circle cx="49" cy="52.827549630850754" r="0.22" fill="#423B38" />
<circle cx="50" cy="52.827549630850754" r="0.22" fill="#423B38" />
<circle cx="51" cy="52.827549630850754" r="0.22" fill="#423B38" />
<circle cx="52" cy="52.827549630850754" r="0.22" fill="#423B38" />
<circle cx="44.5" cy="53.693575034635195" r="0.22" fill="#423B38" />
<circle cx="45.5" cy="53.693575034635195" r="0.22" fill="#423B38" />
<circle cx="46.5" cy="53.693575034635195" r="0.22" fill="#423B38" />
<circle cx="47.5" cy="53.693575034635195" r="0.22" fill="#423B38" />
<circle cx="48.5" cy="53.693575034635195" r="0.22" fill="#423B38" />
<circle cx="49.5" cy="53.693575034635195" r="0.22" fill="#423B38" />
<circle cx="50.5" cy="53.693575034635195" r="0.22" fill="#423B38" />
<circle cx="51.5" cy="53.693575034635195" r="0.22" fill="#423B38" />
<circle cx="47" cy="54.55960043841963" r="0.22" fill="#423B38" />
<circle cx="48" cy="54.55960043841963" r="0.22" fill="#423B38" />
<circle cx="49" cy="54.55960043841963" r="0.22" fill="#423B38" />
<circle cx="50" cy="54.55960043841963" r="0.22" fill="#423B38" />
<circle cx="51" cy="54.55960043841963" r="0.22" fill="#423B38" />
<circle cx="46.5" cy="55.42562584220407" r="0.22" fill="#423B38" />
<circle cx="47.5" cy="55.42562584220407" r="0.22" fill="#423B38" />
<circle cx="48.5" cy="55.42562584220407" r="0.22" fill="#423B38" />
<circle cx="49.5" cy="55.42562584220407" r="0.22" fill="#423B38" />
<circle cx="46" cy="56.29165124598851" r="0.22" fill="#423B38" />
<circle cx="47" cy="56.29165124598851" r="0.22" fill="#423B38" />
<circle cx="48" cy="56.29165124598851" r="0.22" fill="#423B38" />
<circle cx="45.5" cy="57.157676649772945" r="0.22" fill="#423B38" />
<circle cx="46.5" cy="57.157676649772945" r="0.22" fill="#423B38" />
<circle cx="45" cy="58.023702053557386" r="0.22" fill="#423B38" />
<circle cx="43.5" cy="58.88972745734183" r="0.22" fill="#423B38" />
<circle cx="42" cy="59.75575286112626" r="0.22" fill="#423B38" />
<circle cx="43" cy="59.75575286112626" r="0.22" fill="#423B38" />
<circle cx="44" cy="59.75575286112626" r="0.22" fill="#423B38" />
        
      </svg>